<svg width="50" height="50" fill="none" xmlns="http://www.w3.org/2000/svg"><path d="M24.989 50a25.003 25.003 0 01-9.73-48.029 25.003 25.003 0 1119.46 46.064A24.838 24.838 0 0124.99 50zm0-48.071c-12.723 0-23.074 10.35-23.074 23.074 0 12.723 10.35 23.074 23.074 23.074 12.723 0 23.074-10.35 23.074-23.074 0-12.723-10.35-23.074-23.074-23.074z" fill="#fff"/><path d="M24.989 45.614a20.611 20.611 0 1114.574-6.037 20.477 20.477 0 01-14.574 6.037zm0-39.299a18.688 18.688 0 1013.214 5.474A18.568 18.568 0 0024.99 6.315z" fill="#fff"/><path d="M24.989 9.965a.962.962 0 01-.962-.961v-3.65a.961.961 0 011.923 0v3.65a.961.961 0 01-.961.961zm0 35.649a.962.962 0 01-.962-.962v-3.65a.961.961 0 011.923 0v3.65a.961.961 0 01-.961.962zm11.313-30.962a.962.962 0 01-.677-1.642l2.58-2.584a.962.962 0 011.36 1.36l-2.58 2.584a.96.96 0 01-.683.282zM11.095 39.858a.962.962 0 01-.68-1.64l2.584-2.582a.961.961 0 011.354 1.36l-2.584 2.581a.961.961 0 01-.674.281zm33.543-13.893h-3.65a.961.961 0 010-1.923h3.65a.961.961 0 010 1.922zm-35.648 0H5.34a.961.961 0 010-1.923h3.65a.961.961 0 010 1.922zm29.893 13.893a.961.961 0 01-.68-.281l-2.578-2.58a.962.962 0 011.357-1.358l2.58 2.58a.962.962 0 01-.68 1.642v-.003zM13.676 14.652a.96.96 0 01-.68-.285l-2.584-2.584a.961.961 0 111.36-1.36l2.584 2.585a.962.962 0 01-.68 1.641v.003zm11.313 8.821a.962.962 0 01-.962-.962v-5.566a.962.962 0 111.923 0v5.566a.961.961 0 01-.961.962z" fill="#fff"/><path d="M25 18c-.265 0-.52-.135-.707-.376a1.488 1.488 0 01-.293-.908V9.284c0-.34.105-.667.293-.908.187-.24.442-.376.707-.376.265 0 .52.135.707.376.188.24.293.567.293.908v7.432c0 .34-.105.667-.293.908-.187.24-.442.376-.707.376z" fill="#fff"/><path d="M25 23V5.5h5L34.5 8l5 4 3 4L28 25l-3-2z" fill="#fff"/><path d="M24.989 28.456a3.453 3.453 0 110-6.905 3.453 3.453 0 010 6.905zm0-4.983a1.53 1.53 0 100 3.06 1.53 1.53 0 000-3.06z" fill="#fff"/></svg>