<svg width="193" height="209" fill="none" xmlns="http://www.w3.org/2000/svg"><path fill-rule="evenodd" clip-rule="evenodd" d="M88 154.8c.3-15 .5-32 .5-50.1s-.2-35.1-.5-50.1c-5.7.5-11.1 1.5-15.1 2.8-5.8 2-10.6 5.1-14.4 9.3-3.6 4.1-6.2 9.3-7.8 15.6-1.6 6.3-2.4 13.8-2.4 22.4 0 8.6.8 16 2.4 22.4 1.6 6.3 4.2 11.6 7.8 15.8 3.7 4.1 8.5 7.1 14.4 9.2 4.1 1.2 9.4 2.2 15.1 2.7zm-.2 9.7c-.7 29.1-1.9 44-3.3 44h-.1L.5 160.6V48.8L84.4.9h.1c1.4 0 2.6 14.9 3.3 44-9.2.5-17.4 1.7-24.3 3.7-9.1 2.5-16.6 6.3-22.4 11.4-5.7 5-9.9 11.2-12.7 18.8-2.6 7.5-3.9 16.1-3.9 25.9 0 9.8 1.3 18.5 3.9 26.1 2.8 7.5 7 13.7 12.7 18.8 5.8 5 13.3 8.8 22.4 11.4 7 1.9 15.1 3.1 24.3 3.5zm17.3-119.6c.7-29.1 1.9-44 3.3-44h.1l83.9 47.9v111.7l-83.8 47.9h-.1c-1.4 0-2.6-14.9-3.3-44 21-1.1 36.4-6 46.3-14.9 11.4-10.2 17.1-25.1 17.1-44.9 0-19.8-5.7-34.7-17.1-44.7-10-8.9-25.4-14-46.4-15zm-.2 9.7c5.6.5 10.7 1.5 14.6 2.8 6 2 10.9 5.1 14.6 9.3 3.7 4.1 6.4 9.3 8 15.6 1.6 6.3 2.4 13.8 2.4 22.4 0 8.6-.8 16-2.4 22.4-1.6 6.3-4.3 11.6-8 15.8-3.7 4.1-8.6 7.1-14.6 9.2-3.9 1.4-9.1 2.3-14.6 2.8-.3-15-.5-32-.5-50.1s.2-35.3.5-50.2z" fill="#0F4C81"/></svg>