<svg width="60" height="60" fill="none" xmlns="http://www.w3.org/2000/svg"><path fill="#983D4A" d="M0 0h60v60H0z"/><path d="M51.137 24.392H36.471a.863.863 0 01-.863-.863V8.863a.863.863 0 011.726 0v13.804h13.803a.863.863 0 110 1.725zm-27.607 0H8.862a.863.863 0 010-1.725h13.804V8.863a.863.863 0 111.725 0v14.666a.863.863 0 01-.863.863zM36.47 52a.863.863 0 01-.862-.863V36.471c0-.477.386-.863.863-.863h14.666a.863.863 0 010 1.725H37.334v13.804a.863.863 0 01-.863.863zm-12.94 0a.863.863 0 01-.863-.863V37.333H8.863a.863.863 0 010-1.725h14.666c.477 0 .863.386.863.863v14.666a.863.863 0 01-.863.863zm-1.726-21.137H17.49a.863.863 0 010-1.726h4.314a.863.863 0 010 1.726zm-8.627 0H8.863a.863.863 0 010-1.726h4.314a.863.863 0 010 1.726zm37.96 0h-4.314a.863.863 0 010-1.726h4.314a.863.863 0 010 1.726zm-8.627 0h-4.314a.863.863 0 010-1.726h4.314a.863.863 0 010 1.726zM30 52a.863.863 0 01-.863-.863v-4.314a.863.863 0 011.726 0v4.314A.863.863 0 0130 52zm0-8.627a.863.863 0 01-.863-.863v-4.314a.863.863 0 011.726 0v4.314a.863.863 0 01-.863.863zm0-20.706a.863.863 0 01-.863-.863V17.49a.863.863 0 011.726 0v4.314a.863.863 0 01-.863.863zm0-8.628a.863.863 0 01-.863-.862V8.863a.863.863 0 011.726 0v4.314a.863.863 0 01-.863.862zm0 20.706A4.75 4.75 0 0125.255 30 4.75 4.75 0 0130 25.255 4.75 4.75 0 0134.745 30 4.75 4.75 0 0130 34.745zm0-7.765A3.023 3.023 0 0026.98 30 3.023 3.023 0 0030 33.02 3.023 3.023 0 0033.02 30 3.023 3.023 0 0030 26.98z" fill="#fff"/></svg>