<svg width="60" height="60" fill="none" xmlns="http://www.w3.org/2000/svg"><path fill="#983D4A" d="M0 0h60v60H0z"/><path d="M51.282 22.207c0-3.529-2.962-6.4-6.602-6.4l-23.837-.012c-.954.018-.975 1.445-.001 1.467l23.838.012c2.832 0 5.135 2.213 5.135 4.933.053 3.1-2.773 5.715-5.868 5.647h-2.201a.733.733 0 00-.733.733v22.68c0 .405.328.733.733.733 4.844 0 8.956-3.603 9.473-8.236.107-.179.05-.797.063-1.002V22.207zM42.479 50.5V29.32h1.468a7.391 7.391 0 005.868-2.845V42.76c0 .222-.006.43-.027.65-.322 3.759-3.467 6.75-7.309 7.09z" fill="#fff"/><path d="M37.71 42.738l-23.105-.012c-2.832 0-5.135-2.213-5.135-4.933-.054-3.1 2.773-5.715 5.868-5.647h2.2a.733.733 0 00.734-.733V8.733A.733.733 0 0017.539 8c-4.845 0-8.956 3.603-9.473 8.236-.1.149-.055.819-.063 1.002v20.555c0 3.529 2.961 6.4 6.601 6.4l23.105.012c.952-.02.975-1.445 0-1.467zM9.47 33.524V17.24c0-.222.006-.43.026-.65.322-3.758 3.468-6.75 7.31-7.09v21.18h-1.468a7.39 7.39 0 00-5.868 2.844z" fill="#fff"/><path d="M19.55 22.803h5.755v15.114h-9.36c-.959.012-.967 1.453 0 1.467h10.093a.733.733 0 00.733-.733V22.07a.733.733 0 00-.733-.734H19.55c-.965.02-.965 1.448 0 1.466zm18.743 7.185h-3.592V21.36h6.476c.96-.013.966-1.45 0-1.466h-7.21a.733.733 0 00-.733.733V30.72c0 .405.329.733.734.733h4.325c.964-.018.964-1.449 0-1.466zm-8.663 4.586c.016.963 1.45.965 1.466 0v-2.933c-.016-.963-1.45-.965-1.466 0v2.933zm0 5.519c.016.963 1.45.964 1.466 0v-2.586c-.016-.963-1.45-.964-1.466 0v2.586zm0-11.386c.016.963 1.45.965 1.466 0v-2.933c-.016-.963-1.45-.964-1.466 0v2.933zm.733-5.133a.733.733 0 00.733-.733v-2.934a.733.733 0 10-1.466 0v2.934c0 .405.328.733.733.733z" fill="#fff"/></svg>