<svg width="60" height="60" fill="none" xmlns="http://www.w3.org/2000/svg"><path fill="#983D4A" d="M0 0h60v60H0z"/><path d="M51.381 26.454c0-.815-.647-1.49-1.505-1.569l-4.718-.443a16.045 16.045 0 00-1.526-3.682l3.023-3.649c.552-.662.533-1.597-.044-2.174l-3.165-3.166c-.563-.562-1.536-.575-2.173-.044L37.62 14.75a15.909 15.909 0 00-3.68-1.526l-.443-4.717C33.417 7.647 32.744 7 31.928 7h-4.476c-.815 0-1.49.648-1.568 1.505l-.444 4.718a15.933 15.933 0 00-3.682 1.527l-3.649-3.023c-.64-.533-1.611-.52-2.174.044l-3.164 3.165c-.578.577-.597 1.511-.045 2.174l3.024 3.65a15.895 15.895 0 00-1.527 3.681l-4.716.444c-.86.078-1.507.753-1.507 1.568v3.001c0 .165.065.31.16.43C8.39 41.566 17.955 51 29.69 51c11.734 0 21.302-9.434 21.532-21.115a.692.692 0 00.16-.43v-3.001zM44.76 42.772a21.6 21.6 0 00-3.977-3.09c.905-2.85 1.44-6.082 1.507-9.517h7.507a20.031 20.031 0 01-5.037 12.607zM9.585 30.165h7.504c.066 3.437.6 6.67 1.505 9.52a21.645 21.645 0 00-3.973 3.088 20.041 20.041 0 01-5.036-12.608zm10.833-1.475c0-5.113 4.159-9.271 9.271-9.271 5.113 0 9.271 4.16 9.271 9.27l-.002.056H20.42l-.002-.055zm8.562 20.847c-3.645-.413-6.82-3.971-8.695-9.179a19.93 19.93 0 018.695-2.306v11.485zm1.419-11.485c3.088.105 6.04.898 8.695 2.306-1.876 5.208-5.05 8.766-8.695 9.179V38.052zm0-1.42v-6.467h10.478c-.062 3.184-.535 6.183-1.33 8.827a21.356 21.356 0 00-9.148-2.36zm-1.42-6.467v6.468a21.357 21.357 0 00-9.148 2.36c-.795-2.645-1.267-5.643-1.33-8.828H28.98zm-9.912 10.889c1.244 3.311 3.003 6 5.084 7.745a20.122 20.122 0 01-8.555-4.996 20.243 20.243 0 013.47-2.75zm21.243-.003a20.297 20.297 0 013.474 2.752 20.134 20.134 0 01-8.567 5c2.084-1.745 3.846-4.436 5.093-7.752zM9.42 26.454c0-.099.133-.148.219-.156l5.214-.49a.71.71 0 00.623-.54 14.53 14.53 0 011.744-4.207.71.71 0 00-.058-.823l-3.343-4.035c-.054-.064-.114-.193-.044-.263l3.164-3.165c.04-.039.163-.04.265.044l4.034 3.342a.71.71 0 00.823.06 14.52 14.52 0 014.205-1.745.71.71 0 00.541-.623l.491-5.216c.007-.084.056-.218.155-.218h4.476c.099 0 .148.134.156.22l.49 5.214a.71.71 0 00.541.624c1.482.355 2.896.942 4.203 1.743a.71.71 0 00.823-.059l4.038-3.343c.1-.083.226-.081.263-.043l3.164 3.165c.07.07.01.199-.044.264l-3.342 4.034a.71.71 0 00-.058.823 14.649 14.649 0 011.744 4.207.71.71 0 00.623.54l5.215.491c.084.008.218.058.218.155v2.292h-9.585l.002-.055C40.38 22.795 35.584 18 29.69 18 23.795 18 19 22.796 19 28.69l.001.056H9.42v-2.292z" fill="#fff"/></svg>