<svg width="60" height="60" fill="none" xmlns="http://www.w3.org/2000/svg"><path fill="#983D4A" d="M0 0h60v60H0z"/><path d="M29.899 21.942c-4.4 0-7.982 3.582-7.982 7.985 0 4.4 3.581 7.982 7.982 7.982 4.4 0 7.981-3.581 7.981-7.982 0-4.404-3.58-7.985-7.981-7.985zm0 14.548a6.57 6.57 0 01-6.563-6.563c0-3.62 2.944-6.566 6.563-6.566 3.619 0 6.562 2.945 6.562 6.566a6.57 6.57 0 01-6.562 6.563zm0-16.325a2.892 2.892 0 002.888-2.89v-6.387A2.89 2.89 0 0029.899 8a2.89 2.89 0 00-2.888 2.887v6.387a2.892 2.892 0 002.888 2.89zm-1.47-9.278a1.47 1.47 0 012.937 0v6.387a1.47 1.47 0 01-1.467 1.47c-.81 0-1.469-.66-1.469-1.47v-6.387zm1.47 28.949a2.89 2.89 0 00-2.888 2.888v6.389A2.89 2.89 0 0029.9 52a2.89 2.89 0 002.888-2.887v-6.39a2.891 2.891 0 00-2.888-2.887zm1.468 9.278c0 .81-.66 1.467-1.468 1.467a1.47 1.47 0 01-1.469-1.467v-6.39c0-.81.66-1.468 1.469-1.468s1.468.66 1.468 1.468v6.39zM20.163 29.927a2.893 2.893 0 00-2.889-2.891h-6.386A2.892 2.892 0 008 29.926a2.89 2.89 0 002.888 2.888h6.386a2.89 2.89 0 002.89-2.887zm-10.744 0c0-.812.659-1.472 1.468-1.472h6.386a1.47 1.47 0 010 2.94h-6.385a1.47 1.47 0 01-1.47-1.468zm39.473-2.891h-6.389a2.893 2.893 0 00-2.888 2.89 2.891 2.891 0 002.889 2.888h6.388a2.89 2.89 0 002.887-2.887 2.891 2.891 0 00-2.887-2.891zm0 4.36h-6.389a1.47 1.47 0 010-2.94h6.39a1.47 1.47 0 010 2.94zm-29.927-8.407a2.87 2.87 0 002.052.853c.767 0 1.489-.296 2.03-.833.548-.54.852-1.262.857-2.035a2.867 2.867 0 00-.834-2.051l-4.49-4.54a2.862 2.862 0 00-2.054-.855c-.768 0-1.49.296-2.032.833a2.892 2.892 0 00-.021 4.083l4.492 4.545zm-3.471-7.619a1.457 1.457 0 011.033-.422c.397 0 .768.154 1.044.433l4.49 4.54c.277.279.427.649.424 1.044A1.45 1.45 0 0122.05 22c-.554.55-1.528.544-2.076-.01l-4.491-4.543a1.47 1.47 0 01.01-2.076zm25.32 21.497a2.861 2.861 0 00-2.053-.858c-.767 0-1.49.296-2.033.834a2.86 2.86 0 00-.853 2.037 2.87 2.87 0 00.834 2.047l4.491 4.541c.544.55 1.273.854 2.053.854.767 0 1.488-.295 2.033-.833a2.895 2.895 0 00.02-4.084l-4.492-4.538zm3.474 7.613c-.558.549-1.532.542-2.08-.01l-4.49-4.541a1.461 1.461 0 01-.424-1.043 1.458 1.458 0 011.466-1.459c.396 0 .766.155 1.043.435l4.493 4.54c.57.576.565 1.51-.008 2.078zm-5.527-20.638a2.86 2.86 0 002.051-.854l4.494-4.543a2.894 2.894 0 00-.022-4.085 2.875 2.875 0 00-2.032-.832c-.78 0-1.508.305-2.052.856l-4.49 4.539a2.894 2.894 0 00.019 4.086 2.873 2.873 0 002.032.833zm-1.044-3.92l4.492-4.54a1.45 1.45 0 011.043-.433 1.464 1.464 0 011.045 2.499l-4.494 4.543c-.548.556-1.522.557-2.076.01a1.472 1.472 0 01-.01-2.08zM21.018 36.009c-.78 0-1.508.304-2.054.856l-4.492 4.54a2.898 2.898 0 00.023 4.086c.543.535 1.263.83 2.03.83h.001c.78 0 1.51-.303 2.053-.853l4.491-4.54a2.87 2.87 0 00.834-2.052 2.86 2.86 0 00-.855-2.032 2.864 2.864 0 00-2.031-.835zm1.044 3.92l-4.492 4.54a1.45 1.45 0 01-1.043.433 1.46 1.46 0 01-1.033-.42 1.475 1.475 0 01-.012-2.08l4.491-4.54a1.455 1.455 0 011.045-.435c.39 0 .756.15 1.034.426.277.273.43.639.433 1.031a1.46 1.46 0 01-.423 1.045z" fill="#fff"/></svg>