<svg width="60" height="60" fill="none" xmlns="http://www.w3.org/2000/svg"><path fill="#983D4A" d="M0 0h60v60H0z"/><path d="M51.362 12H8.638a.639.639 0 00-.638.638v2.906c0 1.95 1.32 3.581 3.107 4.096v9.595c0 10.418 8.475 18.893 18.893 18.893 10.418 0 18.893-8.475 18.893-18.893V19.64C50.681 19.125 52 17.493 52 15.544v-2.906a.639.639 0 00-.638-.638zm-3.744 17.235c0 9.715-7.903 17.618-17.618 17.618S12.382 38.95 12.382 29.235v-9.41h35.236v9.41zm3.106-13.691a3.009 3.009 0 01-3.007 3.005H12.283a3.009 3.009 0 01-3.007-3.005v-2.268h41.448v2.268z" fill="#fff"/><path d="M30 43.998c5.877 0 10.66-4.782 10.66-10.66 0-5.875-4.783-10.657-10.66-10.657s-10.66 4.782-10.66 10.658c0 5.877 4.783 10.659 10.66 10.659zm0-20.041c5.174 0 9.384 4.208 9.384 9.382 0 5.174-4.21 9.383-9.384 9.383s-9.384-4.21-9.384-9.383c0-5.174 4.21-9.382 9.384-9.382z" fill="#fff"/><path d="M30 37.558a4.225 4.225 0 004.219-4.219 4.225 4.225 0 00-4.22-4.219 4.224 4.224 0 00-4.218 4.219A4.225 4.225 0 0030 37.558zm0-7.162a2.947 2.947 0 012.943 2.943A2.947 2.947 0 0130 36.282a2.947 2.947 0 01-2.943-2.943A2.947 2.947 0 0130 30.396z" fill="#fff"/><path d="M30 35.148c.997 0 1.81-.812 1.81-1.81A1.81 1.81 0 0030 31.532c-.997 0-1.81.81-1.81 1.808 0 .997.813 1.809 1.81 1.809zm0-2.341a.533.533 0 110 1.066.533.533 0 010-1.066zm0-4.745c.936 0 1.7-.764 1.7-1.7 0-.938-.764-1.702-1.7-1.702-.937 0-1.7.764-1.7 1.702 0 .936.763 1.7 1.7 1.7zm0-2.126c.235 0 .424.19.424.426 0 .47-.849.47-.849 0 0-.235.19-.426.425-.426zm-4.935 4.169c.436 0 .873-.165 1.204-.498a1.704 1.704 0 000-2.404v-.001a1.705 1.705 0 00-2.406 0 1.705 1.705 0 000 2.406c.331.332.767.497 1.202.497zm-.3-2a.424.424 0 01.602-.002.427.427 0 01-.602.603.425.425 0 010-.602zm-.042 5.234c0-.937-.763-1.7-1.7-1.7-.938 0-1.702.763-1.702 1.7 0 .938.764 1.702 1.702 1.702.936 0 1.7-.764 1.7-1.702zm-2.126 0a.425.425 0 01.85 0c0 .47-.85.47-.85 0zm2.468 6.633c.436 0 .873-.165 1.204-.498.66-.662.66-1.739 0-2.403a1.706 1.706 0 00-2.406 0 1.703 1.703 0 000 2.405c.331.331.767.496 1.202.496zm-.3-1.999a.424.424 0 11.602.6.423.423 0 01-.602 0 .423.423 0 010-.6zm5.235.643c-.937 0-1.7.763-1.7 1.702 0 .936.763 1.7 1.7 1.7.936 0 1.7-.764 1.7-1.7 0-.939-.764-1.702-1.7-1.702zm-.425 1.702a.426.426 0 11.85 0c0 .47-.85.47-.85 0zm5.359-3.745h-.001c-.454 0-.88.177-1.201.498a1.703 1.703 0 001.2 2.903h.002c.455 0 .88-.177 1.203-.498a1.703 1.703 0 000-2.405 1.694 1.694 0 00-1.203-.498zm.3 2a.42.42 0 01-.3.127h-.001a.423.423 0 01-.299-.125v-.001a.425.425 0 01.299-.727h.001a.42.42 0 01.3.126.424.424 0 010 .6zm.043-5.234c0 .938.764 1.702 1.702 1.702.936 0 1.7-.764 1.7-1.702 0-.937-.764-1.7-1.7-1.7-.938 0-1.702.763-1.702 1.7zm1.702-.425c.235 0 .424.19.424.425 0 .47-.85.47-.85 0 0-.235.19-.425.426-.425zm-2.046-2.808h.001c.455 0 .88-.177 1.203-.498a1.705 1.705 0 000-2.406 1.694 1.694 0 00-1.203-.498h-.001c-.454 0-.88.177-1.201.498a1.703 1.703 0 001.2 2.904zm-.299-2.004a.423.423 0 01.299-.124h.001a.425.425 0 010 .854h-.001a.427.427 0 01-.299-.73z" fill="#fff"/></svg>