<svg width="60" height="60" fill="none" xmlns="http://www.w3.org/2000/svg"><path fill="#983D4A" d="M0 0h60v60H0z"/><path fill-rule="evenodd" clip-rule="evenodd" d="M51.831 29.47l-4.294-4.294a.608.608 0 00-.859 0l-.287.287a.609.609 0 000 .86l2.847 2.846h-9.283a9.983 9.983 0 00-9.124-9.083v-9.324l2.847 2.846a.608.608 0 00.86 0l.286-.286a.608.608 0 000-.86l-4.293-4.294a.598.598 0 00-.537-.157.595.595 0 00-.523.16l-4.294 4.293a.609.609 0 000 .86l.287.286a.608.608 0 00.86 0l2.823-2.824v9.302a9.983 9.983 0 00-9.084 9.08h-9.301l2.846-2.846a.608.608 0 000-.86l-.286-.286a.608.608 0 00-.86 0L8.168 29.47a.598.598 0 00-.157.537c-.03.185.016.38.16.523l4.293 4.294a.609.609 0 00.86 0l.286-.287a.608.608 0 000-.86l-2.824-2.824h9.274a9.981 9.981 0 009.086 9.128v9.233l-2.824-2.825a.608.608 0 00-.86 0l-.287.287a.608.608 0 000 .86l4.294 4.293c.143.143.338.19.524.16.19.034.39-.01.536-.157l4.294-4.294a.608.608 0 000-.86l-.287-.287a.608.608 0 00-.86 0l-2.846 2.847v-9.255a9.98 9.98 0 009.126-9.13h9.256l-2.824 2.824a.608.608 0 000 .86l.286.286a.608.608 0 00.86 0l4.294-4.293a.597.597 0 00.16-.524.596.596 0 00-.157-.536zM30.01 38.416a8.381 8.381 0 110-16.763 8.381 8.381 0 010 16.763z" fill="#fff"/></svg>