<svg width="38" height="40" fill="none" xmlns="http://www.w3.org/2000/svg"><path d="M25.817 17.293a.791.791 0 01-.677-.382l-4.608-7.67a6.06 6.06 0 011.297-7.778 6.168 6.168 0 017.975 0 6.06 6.06 0 011.297 7.78l-4.607 7.668a.791.791 0 01-.677.382zm0-15.727a4.586 4.586 0 00-2.966 1.088 4.507 4.507 0 00-.965 5.787l3.93 6.544 3.931-6.543a4.507 4.507 0 00-.964-5.788 4.586 4.586 0 00-2.966-1.088z" fill="#0C3959"/><path d="M25.786 9.1c-.456 0-.917-.105-1.348-.328a2.901 2.901 0 01-1.244-3.923 2.948 2.948 0 013.952-1.234 2.893 2.893 0 011.44 1.705 2.87 2.87 0 01-.197 2.216A2.935 2.935 0 0125.786 9.1zm.008-4.25a1.341 1.341 0 00-.628 2.536 1.36 1.36 0 001.826-.572 1.34 1.34 0 00-.574-1.813 1.36 1.36 0 00-.624-.152zm-5.406 17.421a.79.79 0 01-.748-.537l-3.323-10.028a.78.78 0 01.501-.987.787.787 0 01.994.498l3.076 9.278 13.62-4.59a.79.79 0 011 .489.781.781 0 01-.491.992L20.64 22.23a.812.812 0 01-.253.041zm-6.96 2.253a.787.787 0 01-.748-.537L9.357 13.959a.787.787 0 011.495-.489l3.323 10.028a.78.78 0 01-.747 1.026z" fill="#0C3959"/><path d="M.788 28.652a.787.787 0 01-.748-.538.78.78 0 01.502-.987L13.182 23a.786.786 0 01.993.498.78.78 0 01-.501.987l-12.64 4.128a.787.787 0 01-.246.039zm1.771 6.68a.785.785 0 01-.747-.534.78.78 0 01.496-.99L36.74 22.362a.789.789 0 01.996.494.78.78 0 01-.495.99L2.81 35.291a.8.8 0 01-.25.04z" fill="#0C3959"/><path d="M26.589 40a.787.787 0 01-.75-.54l-3.708-11.362a.78.78 0 01.506-.985.786.786 0 01.992.503l3.71 11.36a.78.78 0 01-.75 1.024z" fill="#0C3959"/><path d="M25.008 34.935a.78.78 0 01-.242-1.526l5.17-1.658a.788.788 0 01.991.503.78.78 0 01-.507.984l-5.171 1.659a.784.784 0 01-.241.038z" fill="#0C3959"/></svg>