<svg width="45" height="50" fill="none" xmlns="http://www.w3.org/2000/svg"><path d="M43.74 20.314L24.198.774c-1.032-1.032-2.822-1.032-3.854 0L.798 20.314a2.727 2.727 0 000 3.854L18.76 42.129v7.277c0 .32.265.586.586.586a.59.59 0 00.586-.586v-6.105s.907 1.212 2.337 1.212c1.43 0 2.337-1.212 2.337-1.212v6.113c0 .32.266.586.587.586a.59.59 0 00.586-.586v-7.285L43.74 24.168a2.727 2.727 0 000-3.854zm-.83 3.025L23.364 42.887a1.562 1.562 0 01-2.197 0l-19.54-19.54a1.562 1.562 0 010-2.197L21.174 1.596a1.545 1.545 0 011.094-.454c.399 0 .797.149 1.095.454l19.54 19.54c.61.61.61 1.594.008 2.204z" fill="#0C3959"/><path d="M22.683 3.126a.59.59 0 00-.829 0L3.158 21.831a.59.59 0 000 .828l18.696 18.696a.58.58 0 00.414.172.58.58 0 00.415-.172l18.696-18.704a.59.59 0 000-.828L22.683 3.126zm-.415 36.986L4.401 22.245 22.268 4.369l17.868 17.868-17.868 17.875z" fill="#0C3959"/><path d="M21.002 13.686a3 3 0 00-2.313 1.079l-1.43 1.72a.558.558 0 01-.274.187l-3.213 1.157a1.704 1.704 0 00-1.008 2.157 1.69 1.69 0 002.157 1.008l3.791-1.375a1.73 1.73 0 00.72-.5l.148-.173v2.986c0 .5-.18.993-.493 1.384l-1.602 1.954c-.14.18-.235.36-.297.578l-1.462 5.292a1.709 1.709 0 001.196 2.07 1.705 1.705 0 002.064-1.18l1.344-4.908 1.907-2.282a.22.22 0 01.211-.078.224.224 0 01.18.14l3.048 7.3c.25.642.884 1.071 1.571 1.071.204 0 .415-.039.618-.117.86-.344 1.29-1.32.953-2.18l-3.322-8.544a2.11 2.11 0 01-.148-.79v-3.837l.993.493-.493 1.336c-.313.875.14 1.845.993 2.15.852.344 1.868-.141 2.18-.993L30 18.118a1.691 1.691 0 00-.798-2.087l-3.869-2.001a3.046 3.046 0 00-1.391-.336h-2.939v-.008zm7.66 3.377c.227.117.328.39.242.64l-.977 2.681a.508.508 0 01-.484.337.44.44 0 01-.18-.04.513.513 0 01-.305-.656l.485-1.329a1.123 1.123 0 00-.54-1.383l-1.875-.97a.573.573 0 00-.571.024.597.597 0 00-.282.5v4.784c0 .414.079.828.227 1.219l3.322 8.543a.52.52 0 01-.29.665.532.532 0 01-.68-.305l-3.047-7.308a1.381 1.381 0 00-1.087-.845c-.07-.007-.14-.015-.21-.015a1.4 1.4 0 00-1.072.5l-1.993 2.384a.594.594 0 00-.117.219l-1.376 5.026c-.078.265-.297.437-.633.36a.526.526 0 01-.367-.634l1.454-5.276a.507.507 0 01.086-.172l1.594-1.946a3.354 3.354 0 00.758-2.126v-4.596a.594.594 0 00-.383-.555.594.594 0 00-.649.172l-1.172 1.4a.535.535 0 01-.234.163l-3.815 1.384a.515.515 0 01-.64-.313.51.51 0 01.304-.657l3.205-1.156c.297-.11.57-.297.774-.54l1.43-1.72a1.838 1.838 0 011.415-.664h2.93c.306 0 .595.07.853.204l3.9 2zM19.501 9.99a2.739 2.739 0 002.736 2.735 2.739 2.739 0 002.736-2.736 2.739 2.739 0 00-2.736-2.736A2.739 2.739 0 0019.5 9.99zm4.3 0c0 .859-.704 1.562-1.564 1.562-.86 0-1.563-.703-1.563-1.563s.703-1.563 1.563-1.563 1.563.703 1.563 1.563z" fill="#0C3959"/></svg>