<svg width="247" height="50" fill="none" xmlns="http://www.w3.org/2000/svg"><path fill-rule="evenodd" clip-rule="evenodd" d="M21.074 37.09a608.142 608.142 0 000-24.132c-1.373.12-2.673.36-3.637.674-1.397.482-2.553 1.228-3.468 2.24-.867.987-1.493 2.24-1.878 3.757-.386 1.517-.579 3.324-.579 5.395 0 2.071.193 3.854.579 5.395.385 1.517 1.011 2.794 1.878 3.805.891.988 2.047 1.71 3.468 2.216.988.29 2.264.53 3.637.65zm-.048 2.313C20.857 46.41 20.568 50 20.231 50h-.024L0 38.463V11.561L20.207.024h.024c.337 0 .626 3.589.795 10.597-2.216.12-4.19.41-5.853.891-2.191.603-3.998 1.518-5.395 2.746-1.372 1.204-2.384 2.698-3.058 4.528-.627 1.806-.94 3.878-.94 6.238 0 2.36.313 4.456.94 6.286.674 1.807 1.686 3.3 3.058 4.528 1.397 1.204 3.204 2.12 5.395 2.746 1.686.433 3.637.722 5.853.819zm4.167-28.806C25.36 3.59 25.65 0 25.987 0h.025l20.207 11.537v26.902L26.012 49.976h-.024c-.338 0-.627-3.589-.795-10.597 5.057-.265 8.766-1.445 11.15-3.589 2.747-2.457 4.12-6.045 4.12-10.814s-1.373-8.357-4.12-10.766c-2.384-2.144-6.093-3.348-11.15-3.613zm-.049 2.337c1.35.12 2.578.36 3.517.674 1.445.482 2.625 1.228 3.516 2.24.891.987 1.542 2.24 1.927 3.757s.578 3.324.578 5.395c0 2.071-.193 3.854-.578 5.395-.385 1.517-1.036 2.794-1.927 3.805-.89.988-2.071 1.71-3.516 2.216-.94.337-2.192.554-3.517.675a607.38 607.38 0 010-24.157z" fill="#fff"/><path d="M81.883 17.81c2 1.842 2.98 4.116 2.98 6.82 0 2.705-.98 4.979-2.98 6.822-1.999 1.842-4.625 2.822-7.918 2.9v3.254H70.2v-3.254c-3.293-.078-5.92-1.058-7.918-2.9-2-1.843-3.019-4.117-3.019-6.822 0-2.704 1.02-4.978 3.019-6.82 1.999-1.843 4.625-2.823 7.918-2.902V12.36h3.764v2.548c3.293.118 5.919 1.059 7.918 2.901zm-16.935 2.234c-1.254 1.176-1.881 2.705-1.881 4.586 0 1.921.627 3.45 1.881 4.587 1.255 1.176 3.019 1.803 5.293 1.882V18.162c-2.274.079-4.038.706-5.293 1.882zm14.309 9.212c1.254-1.176 1.881-2.705 1.881-4.586 0-1.921-.627-3.45-1.881-4.587-1.255-1.176-3.019-1.803-5.292-1.882v12.937c2.313-.118 4.077-.745 5.292-1.882zm6.664 7.644L95.8 13.028h3.763l9.879 23.874h-3.92l-2.548-6.312H92.389l-2.548 6.312h-3.92zm11.76-19.6l-3.92 9.879h7.841l-3.92-9.88zm19.601-4.273V24.63l10.741-11.604h4.783l-9.212 9.879 9.879 13.995h-4.626l-7.841-11.251-3.763 4.116v7.174h-3.763V13.066h3.802v-.04zm17.994 0h18.072v3.41h-7.174v20.464h-3.724V16.437h-7.174v-3.41zM159.11 33.49a2.2 2.2 0 01.667 1.568c0 .588-.236 1.098-.667 1.568-.431.431-.98.666-1.568.666-.588 0-1.097-.235-1.568-.666-.431-.431-.666-.94-.666-1.568 0-.588.235-1.098.666-1.568.431-.47.98-.666 1.568-.666.588 0 1.137.235 1.568.666zm26.579-20.463V36.9h-3.763V16.437h-11.761v20.464h-3.763V13.027h19.287zm13.524 24.226a6.397 6.397 0 01-1.764-.235c-.588-.157-1.058-.313-1.489-.549-.392-.235-.784-.43-1.098-.666-.314-.235-.549-.392-.706-.549l-.235-.235v9.055h-3.41v-23.52h3.41v1.881c.157-.157.392-.353.667-.627.274-.274.901-.588 1.803-.98.901-.392 1.842-.627 2.822-.627 2.156 0 4.038.823 5.645 2.509 1.608 1.646 2.392 3.684 2.392 6.037 0 2.352-.784 4.39-2.392 6.037-1.607 1.646-3.489 2.47-5.645 2.47zm3.137-12.387c-.981-1.059-2.157-1.608-3.45-1.608-1.294 0-2.431.55-3.45 1.608-1.019 1.058-1.49 2.352-1.49 3.841 0 1.49.51 2.784 1.49 3.842.98 1.059 2.156 1.607 3.45 1.607 1.293 0 2.43-.548 3.45-1.607 1.019-1.058 1.489-2.352 1.489-3.842 0-1.49-.509-2.744-1.489-3.841zm9.761 9.839c-1.686-1.685-2.548-3.685-2.548-5.958 0-2.274.862-4.273 2.548-5.998 1.685-1.686 3.685-2.548 5.998-2.548 2.312 0 4.312.862 5.997 2.548 1.686 1.685 2.548 3.685 2.548 5.998s-.862 4.273-2.548 5.958c-1.685 1.686-3.685 2.548-5.997 2.548-2.313 0-4.313-.862-5.998-2.548zm9.565-2.117c1.019-1.058 1.529-2.352 1.529-3.88 0-1.53-.51-2.823-1.529-3.882-1.019-1.058-2.195-1.568-3.607-1.568-1.411 0-2.587.51-3.606 1.568-1.019 1.059-1.529 2.352-1.529 3.881 0 1.53.51 2.823 1.529 3.881 1.019 1.059 2.234 1.568 3.606 1.568 1.372 0 2.627-.51 3.607-1.568zm16.582-4.861l5.998-7.174H247V36.94h-3.41V26.198l-5.332 6.273-5.292-6.312V36.9h-3.411V20.514h2.744l5.959 7.213z" fill="#fff"/></svg>