<svg width="448" height="80" fill="none" xmlns="http://www.w3.org/2000/svg"><path d="M413.549.08H0V80h413.549V.08z" fill="#0C3959"/><path d="M447.823 0H281.936v80h165.887V0z" fill="#983D4A"/><path d="M23.145 15.484v23.87l22.097-23.87h9.839L36.129 35.887l20.323 28.79h-9.516l-16.13-23.145L23.066 50v14.758h-7.662V15.645h7.742v-.161zm61.694 15.484h6.29v33.71h-7.016V42.58l-17.58 22.096h-6.291v-33.71h7.016v22.098l17.58-22.097zm46.613 19.274h-26.291c.404 2.339 1.533 4.436 3.549 6.129 1.935 1.774 4.355 2.58 7.016 2.58 1.935 0 3.79-.483 5.484-1.37 1.693-.887 2.903-1.775 3.629-2.581l1.048-1.29 4.516 4.596c-.161.162-.322.404-.645.807s-.887.887-1.855 1.694c-.968.806-1.935 1.451-2.984 2.096-1.048.645-2.419 1.13-4.113 1.694-1.693.484-3.387.806-5.161.806-4.758 0-8.871-1.774-12.339-5.242-3.467-3.467-5.16-7.742-5.16-12.661 0-4.758 1.693-8.79 5.08-12.177 3.387-3.387 7.419-5.081 12.097-5.081 4.677 0 8.629 1.532 11.774 4.677 3.145 3.146 4.677 7.097 4.677 11.775l-.322 3.548zM115.323 36.21c-2.5 0-4.678.725-6.371 2.258-1.694 1.532-2.904 3.467-3.468 5.806H125c-.403-2.339-1.452-4.274-3.226-5.806-1.774-1.452-3.871-2.258-6.451-2.258zm22.903-5.242h16.129c3.226 0 5.806.806 7.661 2.5 1.936 1.693 2.823 3.79 2.823 6.29 0 1.452-.323 2.742-.968 3.952s-1.29 2.016-1.935 2.419l-.968.645c.161.08.322.161.564.242.242.08.726.403 1.371.887.646.484 1.21.968 1.694 1.532.484.565.968 1.29 1.371 2.259.403.967.564 2.016.564 3.145 0 2.903-1.048 5.242-3.064 7.097-2.097 1.854-4.92 2.741-8.468 2.741h-16.855l.081-33.71zm18.71 12.016c.645-.645.967-1.452.967-2.58 0-1.05-.322-1.936-.967-2.581-.646-.645-1.533-.968-2.581-.968h-9.113v7.016h9.113c1.048.08 1.935-.242 2.581-.887zm-1.855 6.613h-9.839v9.113h9.839c1.371 0 2.5-.404 3.306-1.21.807-.806 1.21-1.935 1.21-3.306 0-1.29-.403-2.34-1.29-3.226-.807-.968-1.855-1.371-3.226-1.371zm21.451 10.483c-3.467-3.467-5.242-7.58-5.242-12.257 0-4.678 1.775-8.79 5.242-12.34 3.468-3.467 7.581-5.241 12.339-5.241 2.661 0 5.081.564 7.339 1.694 2.258 1.129 3.871 2.258 4.838 3.387l1.452 1.612-4.516 4.597c-.242-.403-.565-.806-1.048-1.37-.484-.565-1.452-1.291-3.065-2.178-1.532-.887-3.226-1.371-5-1.371-2.823 0-5.323 1.048-7.419 3.226-2.097 2.177-3.146 4.839-3.146 7.984 0 3.145 1.049 5.806 3.146 7.983 2.096 2.178 4.596 3.226 7.419 3.226 1.774 0 3.468-.484 5-1.37 1.532-.888 2.661-1.775 3.387-2.581l1.048-1.29 4.597 4.596c-.161.161-.322.403-.645.807-.322.403-.887.887-1.774 1.693-.887.807-1.855 1.452-2.903 2.097-1.049.645-2.339 1.129-3.871 1.693-1.613.484-3.226.807-4.839.807-4.758-.161-8.871-1.936-12.339-5.403zm61.936-29.112L225.484 45l14.032 19.597h-7.742l-10.887-15-5.242 5.645v9.435h-7.016v-33.71h7.016v15.081L230 30.968h8.468zM247.5 60.08c-3.468-3.467-5.242-7.58-5.242-12.257 0-4.678 1.774-8.79 5.242-12.34 3.468-3.467 7.581-5.241 12.339-5.241s8.871 1.774 12.339 5.242c3.467 3.468 5.241 7.58 5.241 12.339 0 4.758-1.774 8.79-5.241 12.258-3.468 3.467-7.581 5.242-12.339 5.242s-8.871-1.775-12.339-5.242zm19.678-4.354c2.096-2.178 3.145-4.839 3.145-7.984 0-3.145-1.049-5.806-3.145-7.984-2.097-2.177-4.517-3.226-7.42-3.226-2.903 0-5.322 1.049-7.419 3.226-2.097 2.177-3.145 4.839-3.145 7.984 0 3.145 1.048 5.806 3.145 7.984 2.097 2.177 4.597 3.226 7.419 3.226 2.823 0 5.323-1.049 7.42-3.226zm82.903-14.274v6.29h-24.597v-6.29h24.597zm23.145 7.742c-4.274 0-7.984-1.694-11.29-5-3.226-3.307-4.92-7.259-4.92-11.855 0-4.597 1.694-8.549 5.161-11.855 3.388-3.307 7.581-5 12.42-5 4.839 0 9.032 1.693 12.419 5 3.387 3.306 5.162 7.258 5.162 11.855 0 1.855-.323 3.71-.968 5.645-.645 1.855-1.291 3.306-1.936 4.194l-.887 1.37-14.032 21.775h-7.742L377.5 48.468c-1.21.484-2.581.726-4.274.726zm-6.048-24.033c-2.017 2.016-3.065 4.436-3.065 7.178 0 2.822 1.048 5.161 3.065 7.177 2.016 2.016 4.516 2.984 7.5 2.984 2.983 0 5.403-.968 7.499-2.984 2.017-2.016 3.065-4.355 3.065-7.177 0-2.823-1.048-5.162-3.065-7.178-2.016-2.016-4.516-2.984-7.499-2.984-2.984 0-5.484.968-7.5 2.984zm51.693 8.469c4.92 0 8.952 1.531 12.097 4.676 3.145 3.146 4.758 7.017 4.758 11.855 0 4.92-1.613 9.033-4.839 12.097-3.225 3.145-7.419 4.678-12.742 4.678-2.258 0-4.354-.242-6.371-.807-2.016-.564-3.709-1.21-5-1.935-1.29-.726-2.419-1.452-3.387-2.258-.967-.726-1.613-1.371-2.016-1.855l-.726-.887 4.92-4.92c.08.162.242.323.484.565.242.242.725.726 1.532 1.37.806.646 1.613 1.21 2.5 1.694s2.097.968 3.548 1.371c1.452.404 2.984.565 4.516.565 2.823 0 5.162-.968 7.017-2.823 1.854-1.855 2.822-4.193 2.822-7.016 0-2.822-.968-5.161-2.822-7.016-1.855-1.855-4.194-2.823-7.017-2.823a13.99 13.99 0 00-5.564 1.13c-1.613.725-2.742 1.532-3.387 2.258l-.887 1.129h-5.645l1.37-27.742h28.388v7.016h-21.371l-.726 11.613c1.935-1.29 4.758-1.936 8.548-1.936zM294.113 57.58h27.742v7.017h-35.484V15.484h34.758V22.5h-27.016v12.984h21.371V42.5h-21.371v15.08z" fill="#fff"/></svg>