<svg width="60" height="61" fill="none" xmlns="http://www.w3.org/2000/svg"><path d="M58.142 27.676H55.98v-2.31A12.705 12.705 0 0043.294 12.73h-4.629V9.716a.968.968 0 00-.968-.968h-3.441V2.467h7.405a.968.968 0 100-1.937H24.934a.968.968 0 000 1.937h7.385v6.281h-3.447a.968.968 0 00-.968.968v3.015H24.23a13.647 13.647 0 00-13.654 13.635V49.76H7.29a.968.968 0 00-.968.969v7.863H1.938a.968.968 0 100 1.937h26.65a.968.968 0 100-1.937h-3.544V50.73a.968.968 0 00-.969-.968h-2.744V26.914a3.428 3.428 0 013.428-3.428h3.145V26.5a.968.968 0 00.968.969h8.825a.968.968 0 00.968-.969v-3.015h3.164a3.434 3.434 0 013.434 3.429v.761h-2.13a.968.968 0 00-.969.969v5.37a.968.968 0 00.969.97h15.01a.969.969 0 00.948-.97v-5.37a.968.968 0 00-.949-.969zm-.987 5.372H44.1v-3.435h13.054v3.434zm-20.427-9.562v2.047H29.84V10.685h6.888v12.801zM23.107 58.593H8.259v-6.895h14.848v6.895zm1.652-37.043a5.371 5.371 0 00-5.364 5.365V49.76h-6.882V26.366A11.71 11.71 0 0124.23 14.668h3.693v6.882H24.76zm17.07 0h-3.164v-6.882h4.629a10.762 10.762 0 0110.742 10.697v2.33H47.2v-.78a5.371 5.371 0 00-5.371-5.365z" fill="#fff"/><path d="M49.847 39.49c-.536.762-5.255 7.554-5.255 10.581a6.05 6.05 0 0012.091 0c0-3.027-4.719-9.819-5.255-10.58a1.001 1.001 0 00-1.581 0zm-3.319 10.581c0-1.581 2.273-5.526 4.113-8.302 1.833 2.776 4.106 6.72 4.106 8.302a4.113 4.113 0 01-8.219 0z" fill="#fff"/></svg>