<svg width="60" height="60" fill="none" xmlns="http://www.w3.org/2000/svg"><path d="M58.96 54.026a1.04 1.04 0 00-1.038 1.039v2.857h-2.857a1.04 1.04 0 00-1.04 1.039c0 .57.468 1.038 1.04 1.038h3.896a1.04 1.04 0 001.038-1.038v-3.896a1.039 1.039 0 00-1.038-1.04zm-11.055 3.896h-7.163a1.04 1.04 0 00-1.039 1.039c0 .57.468 1.038 1.04 1.038h7.162a1.04 1.04 0 001.04-1.038c0-.572-.468-1.04-1.04-1.04zm-14.324 0h-7.163a1.04 1.04 0 00-1.038 1.039 1.04 1.04 0 001.038 1.038h7.163a1.04 1.04 0 001.04-1.038 1.04 1.04 0 00-1.04-1.04zm-14.323 0h-7.163a1.04 1.04 0 00-1.04 1.039 1.04 1.04 0 001.04 1.038h7.16a1.04 1.04 0 00.003-2.078zm-14.323 0H2.078v-2.857a1.039 1.039 0 10-2.078 0v3.896c0 .574.465 1.038 1.039 1.038h3.896a1.04 1.04 0 001.039-1.038 1.04 1.04 0 00-1.04-1.04zm-3.896-8.978a1.04 1.04 0 001.039-1.039v-7.163a1.039 1.039 0 10-2.078 0v7.163a1.04 1.04 0 001.039 1.04zm0-28.648c.574 0 1.039-.465 1.039-1.038v-7.163a1.039 1.039 0 10-2.078 0v7.16a1.04 1.04 0 001.039 1.041zm0 14.324a1.04 1.04 0 001.039-1.038v-7.163a1.039 1.039 0 10-2.078 0v7.162c0 .575.465 1.04 1.039 1.04zM4.935 0H1.039C.465 0 0 .465 0 1.039v3.896a1.039 1.039 0 102.078 0V2.078h2.857a1.039 1.039 0 100-2.078zm7.16 2.078h7.16a1.039 1.039 0 100-2.078h-7.16a1.039 1.039 0 100 2.078zm14.323 0h7.163a1.039 1.039 0 100-2.078h-7.163a1.039 1.039 0 100 2.078zm14.324 0h7.163a1.039 1.039 0 100-2.078h-7.163a1.039 1.039 0 100 2.078zM58.96 0h-3.895a1.039 1.039 0 100 2.078h2.857v2.857a1.04 1.04 0 001.039 1.039 1.04 1.04 0 001.038-1.04V1.04A1.037 1.037 0 0058.961 0zm0 11.058c-.574 0-1.038.465-1.038 1.04v7.16a1.04 1.04 0 001.039 1.039 1.04 1.04 0 001.038-1.04v-7.162a1.036 1.036 0 00-1.038-1.037zm0 14.322c-.574 0-1.038.465-1.038 1.039v7.162a1.04 1.04 0 001.039 1.04c.57 0 1.038-.468 1.038-1.04v-7.163a1.037 1.037 0 00-1.038-1.038zm0 14.32a1.04 1.04 0 00-1.038 1.04v7.163a1.04 1.04 0 001.039 1.038c.57 0 1.038-.467 1.038-1.038V40.74a1.039 1.039 0 00-1.038-1.04zM10.952 19.279c.574 0 1.039-.465 1.039-1.039v-6.155h6.155a1.039 1.039 0 100-2.078h-7.194c-.574 0-1.039.465-1.039 1.039v7.194a1.04 1.04 0 001.04 1.039zm8.231 29.676a1.04 1.04 0 00-1.04-1.04h-6.155v-6.152a1.039 1.039 0 10-2.077 0v7.194c0 .574.465 1.039 1.039 1.039h7.194a1.042 1.042 0 001.039-1.041zm29.867-8.233a1.04 1.04 0 00-1.04 1.038v6.153h-6.152a1.04 1.04 0 00-1.039 1.04c0 .57.468 1.038 1.04 1.038h7.193a1.04 1.04 0 001.04-1.039v-7.194a1.044 1.044 0 00-1.042-1.036z" fill="#fff"/><path d="M46.503 15.01a1.038 1.038 0 10-1.47-1.468l-9.207 9.207H24.214l-9.204-9.21a1.038 1.038 0 00-1.468 1.468l9.207 9.207v11.568l-9.207 9.207a1.04 1.04 0 00.735 1.774c.268 0 .533-.102.735-.304l9.207-9.207h11.568l9.207 9.207a1.038 1.038 0 001.47-1.47l-9.207-9.207V24.258l9.246-9.248zm-21.679 9.814h10.35v10.35h-10.35v-10.35z" fill="#fff"/><path d="M49.092 10.007H41.9a1.039 1.039 0 100 2.078h6.15v6.155a1.04 1.04 0 001.04 1.039 1.04 1.04 0 001.038-1.039v-7.194a1.036 1.036 0 00-1.036-1.039z" fill="#fff"/></svg>