<svg width="60" height="49" fill="none" xmlns="http://www.w3.org/2000/svg"><path d="M20 40h-1.987v1.987H20V40zm0-4.038h-1.987v1.987H20v-1.987zm0-3.975h-1.987v1.987H20v-1.987zM11.987 40H10v1.987h1.987V40zm0-4.038H10v1.987h1.987v-1.987zm0-3.975H10v1.987h1.987v-1.987zm0-3.974H10V30h1.987v-1.987zm4.039 0h-1.988V30h1.988v-1.987zm3.974 0h-1.987V30H20v-1.987z" fill="#fff"/><path d="M60 0v48.013H0V0h60zm-1.987 45.962v-20H1.987v20H10v-1.988h1.987v1.988h6.026v-1.988H20v1.988h38.013zm0-21.988v-1.987H1.987v1.987h56.026zm0-3.974V1.987H1.987V20h56.026z" fill="#fff"/><path d="M26.026 10h-1.988v1.987h1.988V10zm0 3.974h-1.988v1.987h1.988v-1.987zm3.974 0h-1.987v1.987H30v-1.987zm3.974 0h-1.987v1.987h1.987v-1.987zm4.039 0h-1.987v1.987h1.987v-1.987zm3.974 0H40v1.987h1.987v-1.987zm4.039 0h-1.988v1.987h1.988v-1.987zm3.974 0h-1.987v1.987H50v-1.987zM26.026 5.961h-1.988V7.95h1.988V5.96zm3.974 0h-1.987V7.95H30V5.96zm3.974 0h-1.987V7.95h1.987V5.96zm4.039 0h-1.987V7.95h1.987V5.96zm3.974 0H40V7.95h1.987V5.96zm4.039 0h-1.988V7.95h1.988V5.96zm3.974 0h-1.987V7.95H50V5.96zM50 10h-1.987v1.987H50V10z" fill="#fff"/></svg>