<svg width="50" height="50" fill="none" xmlns="http://www.w3.org/2000/svg"><path d="M1.515 50h46.97A1.52 1.52 0 0050 48.485V1.515A1.52 1.52 0 0048.485 0H1.515A1.52 1.52 0 000 1.515v46.97A1.52 1.52 0 001.515 50zm34.955-3.03c.03-.243.068-.478.106-.712.015-.084.023-.167.045-.25.076-.372.167-.728.28-1.084.023-.083.061-.166.084-.25.09-.265.182-.53.288-.795l.159-.356c.098-.22.197-.432.31-.644.069-.121.13-.243.197-.364.114-.204.235-.401.364-.59.076-.114.144-.228.227-.342.121-.181.258-.348.394-.522l5.91 5.909H36.47zm10.5-2.144l-5.91-5.91a8.416 8.416 0 01.872-.613c.19-.121.386-.242.583-.356.121-.068.25-.136.371-.205.205-.106.417-.212.63-.303.12-.053.242-.113.363-.166.25-.106.507-.197.773-.28.09-.03.181-.069.272-.092.356-.106.712-.204 1.076-.28.09-.023.182-.03.28-.045.228-.046.455-.076.69-.106v8.356zm0-41.796v30.38h-.015l-.175.022c-.424.045-.84.106-1.25.19-.159.03-.318.075-.477.113a12.13 12.13 0 00-.901.235 12.81 12.81 0 00-.523.174c-.273.09-.538.19-.803.295a7.773 7.773 0 00-.523.228c-.25.113-.5.234-.75.363-.167.084-.333.175-.5.265-.242.137-.485.288-.72.44-.151.098-.303.19-.454.295-.25.175-.493.356-.735.546-.083.068-.174.121-.25.19L5.174 3.03H46.97zM3.03 5.174l33.728 33.727c-.069.084-.122.167-.19.25-.19.243-.371.485-.545.735-.099.144-.197.303-.296.455-.151.235-.303.477-.44.72-.09.166-.18.333-.264.5-.13.242-.25.492-.364.75l-.227.522c-.106.266-.197.53-.296.796-.06.174-.12.348-.174.53-.083.288-.159.591-.227.886-.038.167-.084.326-.114.493-.076.394-.136.795-.182 1.204-.007.076-.022.144-.03.22v.015H3.03V5.174z" fill="#fff"/></svg>