<svg width="43" height="60" fill="none" xmlns="http://www.w3.org/2000/svg"><path d="M31.566 59.849h9.545c.505 0 .91-.405.91-.91a.905.905 0 00-.91-.909h-8.788l-3.03-21.97 4.596-4.191v1.666c0 .505.404.91.909.91s.91-.405.91-.91v-3.887c0-.051 0-.051-.051-.101 0-.051 0-.051-.05-.102 0 0 0-.05-.051-.05 0-.05-.05-.05-.05-.101 0 0 0-.05-.051-.05l-.051-.051-.05-.05-.051-.051c-.05 0-.05-.05-.101-.05 0 0-.05 0-.101-.051-.05 0-.05 0-.101-.05h-6.616L26.01 11.716l3.384-3.08v1.666c0 .505.404.91.909.91s.91-.405.91-.91V6.415c0-.051 0-.051-.051-.102 0-.05 0-.05-.05-.1 0 0 0-.051-.051-.051 0-.05-.05-.05-.05-.101 0 0 0-.05-.051-.05l-.05-.051-.051-.05-.05-.051-.051-.05s-.05 0-.101-.051c-.05 0-.05 0-.101-.05h-5.253l-.808-4.95C24.445.303 24.04 0 23.636 0h-5.252c-.455 0-.808.303-.859.758l-.707 5.151h-5.201c-.051 0-.051 0-.102.05h-.05c-.05 0-.05.051-.101.051l-.05.05-.051.051-.05.05s0 .051-.051.051c0 0-.05.05-.05.101l-.051.05c0 .051-.05.051-.05.102 0 .05 0 .05-.051.1v3.89c0 .506.404.91.909.91s.909-.404.909-.91V8.788l3.384 3.08-.253 1.718v.151l-2.121 15.354H7.02c-.051 0-.051 0-.102.05 0 0-.05 0-.05.05-.05 0-.05.051-.101.051l-.05.05-.051.051-.05.05s0 .051-.051.051c0 0-.05.051-.05.102l-.051.05c0 .05-.05.05-.05.101 0 .05 0 .05-.051.101v3.889c0 .505.404.909.909.909s.909-.404.909-.91V32.02l4.596 4.192-3.03 21.97H.908A.905.905 0 000 59.09c0 .505.404.909.91.909h30.656v-.151zM16.414 21.767l3.182 2.676-3.99 3.334.808-6.01zm10 6.01l-4.04-3.334 3.182-2.676.858 6.01zm2.424 17.677l1.566 11.414-7.98-6.313 6.414-5.101zm-7.828 3.99l-7.121-5.657 7.121-6.566 7.121 6.566-7.12 5.656zm6.515-13.586l.758 5.656-5.96-5.555 4.647-4.293.555 4.192zm-2.171-5.05l-4.344 3.989-4.343-3.99h8.686zm-8.485-1.769l4.141-3.434 4.141 3.434H16.87zm4.141-5.757l-3.737-3.132 3.737-2.474 3.737 2.474-3.737 3.132zm1.616-6.667l2.071-1.364.404 3.03-2.475-1.666zm-1.616-1.06l-2.93-1.92 2.93-2.626 2.93 2.626-2.93 1.92zm3.182-4.091l-1.869-1.667 1.465-1.313.404 2.98zM21.01 8.636l-1.11-1.01h2.222l-1.11 1.01zm-1.313 1.162l-1.818 1.667.404-2.93 1.414 1.263zm-2.374 5.454l2.07 1.364-2.474 1.616.404-2.98zM15.05 31.718l4.647 4.293-5.96 5.505 1.313-9.798zm-1.868 13.738l6.414 5.1-7.98 6.314 1.566-11.414zm7.828 6.212l8.03 6.363H12.98l8.03-6.363zm11.515-20.859L29.04 33.94l-.454-3.13h3.94zM27.98 7.626l-2.273 2.071-.303-2.07h2.576zm-8.788-5.858h3.687l.555 4.141h-4.798l.556-4.141zM14.04 7.626h2.526l-.253 2.071-2.273-2.07zM9.495 30.808h3.94l-.455 3.131-3.485-3.13z" fill="#fff"/></svg>