<svg width="60" height="49" fill="none" xmlns="http://www.w3.org/2000/svg"><path d="M59.824 3.641c-.136-.203-.407-.338-.677-.338H36.18L33.133.254c-.339-.339-.88-.339-1.152 0-.339.339-.339.88 0 1.152l1.83 1.829H16.67c-.339 0-.677.203-.745.542L8.203 23.355 6.916 20.78c-.203-.406-.677-.61-1.084-.406-.406.203-.61.677-.406 1.084l1.896 3.861L.074 43.746c-.136.27-.068.542.068.745.135.203.406.339.677.339h19.104l-1.83 1.829c-.338.338-.338.88 0 1.151.136.136.407.271.61.271.204 0 .407-.068.61-.27l3.049-3.05h21c.339 0 .678-.202.745-.541l7.317-18.494 3.726-1.83c.406-.203.61-.677.406-1.083-.203-.407-.677-.61-1.084-.407l-2.1 1.152L59.96 4.454c.068-.27.068-.61-.135-.813zm-9.213 19.782l-1.287-2.575c-.203-.406-.678-.61-1.084-.406-.407.203-.61.677-.407 1.084l1.965 3.929-6.842 17.342-.068-.135a.441.441 0 10-.745.474l.068.135H22.36l-3.048-3.048c-.339-.339-.88-.339-1.151 0-.34.339-.34.88 0 1.152l1.829 1.829H2.648c0-.136 0-.271-.068-.339-.067-.068-.203-.136-.27-.203l6.638-16.868 3.794-1.897c.406-.204.61-.678.406-1.084-.203-.407-.677-.61-1.083-.407l-2.1 1.084 7.18-18.155.204.27a.372.372 0 00.338.204c.068 0 .136 0 .203-.068a.441.441 0 00.136-.61l-.203-.338h16.055L32.05 6.622c-.339.339-.339.88 0 1.152.136.135.407.27.61.27s.406-.067.61-.27l3.048-3.049h21.746L50.61 23.422z" fill="#fff"/><path d="M26.494 19.561a.373.373 0 00.339.203c.067 0 .135 0 .203-.067a.441.441 0 00.135-.61l-.948-1.355a.441.441 0 10-.745.474l1.016 1.355zm-5.555-8.265a.373.373 0 00.339.204c.067 0 .135 0 .203-.068a.441.441 0 00.135-.61l-.948-1.355a.441.441 0 10-.745.474l1.016 1.355zm-1.152-3.252L18.84 6.69a.441.441 0 10-.745.474l.948 1.355a.372.372 0 00.339.203c.068 0 .135 0 .203-.068.271-.135.339-.406.203-.61zm13.888 20.798a.441.441 0 10-.745.474l.948 1.355a.373.373 0 00.339.203c.068 0 .135 0 .203-.067a.441.441 0 00.136-.61l-.881-1.355zm-1.829-2.778a.441.441 0 10-.745.474l.948 1.356a.373.373 0 00.339.203c.067 0 .135 0 .203-.068a.441.441 0 00.135-.61l-.88-1.355zm3.658 5.556a.441.441 0 10-.745.474l.948 1.355a.373.373 0 00.339.203c.068 0 .136 0 .203-.068a.441.441 0 00.136-.61l-.881-1.354zm5.555 8.264a.441.441 0 10-.745.474l.948 1.355a.372.372 0 00.339.203c.068 0 .135 0 .203-.067a.441.441 0 00.136-.61l-.881-1.355zm-1.626-.88a.372.372 0 00.339.203c.068 0 .135 0 .203-.068a.441.441 0 00.136-.61l-.949-1.355a.441.441 0 10-.745.474l1.016 1.356zm-9.484-15.717a.441.441 0 10-.745.474l.135.271-1.355.948a.441.441 0 00-.135.61.373.373 0 00.338.203c.068 0 .136 0 .204-.067l1.355-.881.27.474a.373.373 0 00.34.203c.067 0 .135 0 .203-.067a.441.441 0 00.135-.61l-.745-1.558zm7.384 11.11a.441.441 0 00-.61-.135.441.441 0 00-.135.61l.948 1.354a.373.373 0 00.339.203c.068 0 .136 0 .203-.067a.441.441 0 00.136-.61l-.88-1.355zm-11.991-18.02l-.948-1.355a.441.441 0 10-.745.474l.948 1.356a.372.372 0 00.339.203c.068 0 .135 0 .203-.068.271-.203.339-.474.203-.61zm-2.168-2.167c.068 0 .136 0 .204-.069a.441.441 0 00.135-.61l-.948-1.354a.441.441 0 10-.745.474l.948 1.355c.136.136.271.203.406.203zm5.556 8.331c.067 0 .135 0 .203-.067a.441.441 0 00.135-.61l-.948-1.355a.441.441 0 10-.745.474l.948 1.355c.136.136.271.203.407.203zm10.568-4.403c.067 0 .135 0 .203-.068l1.355-.948a.441.441 0 10-.474-.745l-1.355.948a.441.441 0 00-.136.61c.203.136.339.203.407.203zm-15.31 9.62l-1.355.949a.441.441 0 00-.136.61.373.373 0 00.339.203c.068 0 .135 0 .203-.068l1.355-.949a.441.441 0 00.135-.61c-.067-.27-.338-.27-.541-.135zm8.264-5.691l-1.355.949a.441.441 0 00-.135.61.373.373 0 00.339.203c.067 0 .135 0 .203-.068l1.355-.948a.441.441 0 00.135-.61c-.135-.203-.406-.271-.542-.136zM55.827 6.825c.068 0 .136 0 .203-.067l1.355-.949a.441.441 0 10-.474-.745l-1.355.948a.441.441 0 00-.135.61c.135.136.27.203.406.203zM15.723 33.38l-1.355.95a.441.441 0 00-.136.609.372.372 0 00.34.203c.067 0 .135 0 .202-.068l1.355-.948a.441.441 0 00.136-.61c-.068-.203-.339-.27-.542-.135zM53.05 8.722c.067 0 .135 0 .203-.068l1.355-.948a.441.441 0 10-.474-.745l-1.355.948a.441.441 0 00-.136.61c.136.135.271.203.407.203zM21.21 29.587l-1.355.948a.441.441 0 00-.136.61.373.373 0 00.34.203c.067 0 .135 0 .203-.067l1.354-.949a.441.441 0 00.136-.61c-.068-.203-.339-.27-.542-.135zm-2.71 1.897l-1.355.948a.441.441 0 00-.135.61.372.372 0 00.338.203c.068 0 .136 0 .204-.067l1.355-.949a.441.441 0 00.135-.61c-.068-.203-.339-.27-.542-.135zm23.575-15.242c.068 0 .136 0 .203-.068l1.355-.948a.441.441 0 10-.474-.745l-1.355.948a.441.441 0 00-.135.61c.135.135.27.203.406.203zm-5.487 3.793c.068 0 .135 0 .203-.067l1.355-.949a.441.441 0 10-.474-.745l-1.355.949a.441.441 0 00-.136.61c.136.135.271.202.407.202zm10.974-7.587c.068 0 .136 0 .204-.068l1.354-.948a.441.441 0 00.136-.61c-.136-.203-.407-.203-.61-.135l-1.355.948a.441.441 0 00-.135.61c.135.203.27.203.406.203zm-2.709 1.897c.067 0 .135 0 .203-.068l1.355-.948a.441.441 0 00.135-.61c-.135-.203-.406-.203-.61-.135l-1.354.948a.441.441 0 00-.136.61c.136.135.271.203.407.203zm5.487-3.726c.068 0 .135 0 .203-.068l1.355-.948a.441.441 0 00.135-.61c-.135-.203-.406-.203-.61-.136l-1.354.949a.441.441 0 00-.136.61c.136.135.271.203.407.203zM26.765 25.861l-1.355.949a.441.441 0 00-.135.61.372.372 0 00.338.203c.068 0 .136 0 .204-.068l1.355-.949a.441.441 0 00.135-.61c-.135-.202-.406-.27-.542-.135zm7.045-3.997c.068 0 .136 0 .204-.067l1.354-.949a.441.441 0 00.136-.61c-.136-.203-.407-.203-.61-.135l-1.355.948a.441.441 0 00-.135.61c.203.203.27.203.406.203zM13.013 35.278l-1.355.948a.441.441 0 00-.135.61.373.373 0 00.338.203c.068 0 .136 0 .204-.068l1.354-.948a.441.441 0 00.136-.61c-.136-.203-.339-.27-.542-.135zM4.748 40.9l-1.355.949a.441.441 0 00-.135.61.373.373 0 00.339.203c.067 0 .135 0 .203-.068l1.355-.949a.441.441 0 00.135-.61c-.068-.202-.339-.27-.542-.135zm5.487-3.726l-1.354.949a.441.441 0 00-.136.61.373.373 0 00.339.203c.068 0 .135 0 .203-.068l1.355-.948a.441.441 0 00.135-.61c-.067-.271-.338-.271-.542-.136zm-2.709 1.829l-1.355.949a.441.441 0 00-.136.61.372.372 0 00.339.203c.068 0 .135 0 .203-.068l1.355-.948a.441.441 0 00.136-.61c-.136-.203-.34-.203-.542-.136z" fill="#fff"/></svg>