<svg width="60" height="60" fill="none" xmlns="http://www.w3.org/2000/svg"><path d="M55.333 48c-2.133 0-3.866 1.4-4.466 3.333H46a2.674 2.674 0 01-2.667-2.666v-6.2c6-4.2 10-11.2 10-19.134C53.333 10.467 42.867 0 30 0 17.133 0 6.667 10.467 6.667 23.333c0 7.934 4 14.934 10 19.134v6.2c0 1.466-1.2 2.666-2.667 2.666H9.133C8.533 49.4 6.8 48 4.667 48A4.638 4.638 0 000 52.667c0 2.6 2.067 4.666 4.667 4.666 2.133 0 3.866-1.4 4.466-3.333H14c2.933 0 5.333-2.4 5.333-5.333v-4.6c2.8 1.466 6 2.333 9.334 2.533v4.267c-1.934.6-3.334 2.333-3.334 4.466C25.333 57.933 27.4 60 30 60c2.6 0 4.667-2.067 4.667-4.667 0-2.133-1.4-3.866-3.334-4.466V46.6c3.334-.2 6.534-1.067 9.334-2.533v4.6C40.667 51.6 43.067 54 46 54h4.867c.6 1.933 2.333 3.333 4.466 3.333 2.6 0 4.667-2.066 4.667-4.666 0-2.6-2.067-4.667-4.667-4.667zM4.667 54.667c-1.134 0-2-.867-2-2 0-1.134.866-2 2-2 1.133 0 2 .866 2 2 0 1.133-.867 2-2 2zm4.666-31.334C9.333 11.933 18.6 2.667 30 2.667c11.4 0 20.667 9.266 20.667 20.666S41.4 44 30 44C18.6 44 9.333 34.733 9.333 23.333zm22.667 32c0 1.134-.867 2-2 2s-2-.866-2-2c0-1.133.867-2 2-2s2 .867 2 2zm23.333-.666c-1.133 0-2-.867-2-2 0-1.134.867-2 2-2 1.134 0 2 .866 2 2 0 1.133-.866 2-2 2zM39.8 19.4s0-.067.067-.067c0-.066.066-.066.066-.133s0-.067.067-.133c0-.067 0-.067.067-.134V18.4c0-.067-.067-.133-.067-.267 0 0 0-.066-.067-.066-.066-.134-.133-.2-.2-.334v-.066l-.066-.067-.134-.133s-.066 0-.066-.067c-.067 0-.067-.067-.134-.067-.066 0-.066 0-.133-.066-.067 0-.067 0-.133-.067h-5.8l4.266-6.6s0-.067.067-.067c0-.066.067-.066.067-.133s0-.067.066-.133c0-.067 0-.067.067-.134v-.466c0-.067 0-.067-.067-.134 0-.066 0-.066-.066-.133 0-.067-.067-.067-.067-.133 0-.067-.067-.067-.067-.134 0-.066-.066-.066-.066-.066 0-.067-.067-.067-.067-.134l-.067-.066-.133-.134s-.067 0-.067-.066c-.066 0-.066-.067-.133-.067s-.067 0-.133-.067H24.733c-.066 0-.066 0-.133.067-.067 0-.067 0-.133.067-.067 0-.067.066-.134.066l-.066.067c-.067 0-.067.067-.134.067l-.066.066C24.067 9 24 9 24 9.067c0 0-.067.066-.067.133s-.066.067-.066.133c0 .067-.067.067-.067.134v.066L20.067 24.4v.6c0 .067 0 .067.066.133 0 .067.067.067.067.134 0 .066.067.066.067.133s.066.067.066.133c0 .067.067.067.067.134l.067.066s.066.067.133.067.067.067.133.067c.067 0 .067.066.134.066.066 0 .066.067.133.067h.067c.066 0 .2.067.266.067h6.4l-2.133 10.2v.466c0 .067 0 .067.067.134 0 .066 0 .066.066.133 0 .067.067.067.067.133 0 .067.067.067.067.134 0 .066.066.066.066.066 0 .067.067.067.067.134l.067.066.133.134h.067c.066.066.2.066.266.133h.4c.067 0 .2 0 .267-.067h.067c.066 0 .133-.066.2-.066h.066c.067-.067.134-.134.2-.134l.067-.066.2-.2L39.8 19.4zm-9.133 5.733V24.6c0-.067 0-.067-.067-.133 0-.067 0-.067-.067-.134 0-.066-.066-.066-.066-.133s-.067-.067-.067-.133c0-.067-.067-.067-.067-.134l-.066-.066-.067-.067c-.067 0-.067-.067-.133-.067-.067 0-.067-.066-.134-.066l-.066-.067c-.067 0-.134-.067-.267-.067H23l3.067-12.2h7.666l-4.266 6.6s0 .067-.067.067c0 .067-.067.067-.067.133 0 .067 0 .067-.066.134 0 .066 0 .066-.067.133v.4c0 .067 0 .067.067.133 0 .067 0 .067.066.134 0 .066.067.066.067.133s.067.067.067.133c0 .067.066.067.066.067 0 .067.067.067.067.133l.067.067.133.133c.067.067.2.067.267.134h.066c.134 0 .2.066.334.066h5.6l-6.534 10 1.134-4.8z" fill="#fff"/></svg>