<svg width="60" height="60" fill="none" xmlns="http://www.w3.org/2000/svg"><path d="M42.052 15.864a.934.934 0 00.705-1.546L30.61.3a.968.968 0 00-1.402 0L17.06 14.318a.933.933 0 00.366 1.569.933.933 0 001.036-.345L29.903 2.338l11.443 13.204a.933.933 0 00.706.322z" fill="#fff"/><path d="M38.78 28.012a.934.934 0 00.935-.934v-10.06a.958.958 0 00-.22-.602l-8.877-10.5a.962.962 0 00-1.425 0l-8.877 10.5a.958.958 0 00-.225.602v10.06a.934.934 0 001.87 0V17.36l7.942-9.392 7.943 9.392v9.718a.934.934 0 00.935.934z" fill="#fff"/><path d="M57.938 26.382h-6.303l-9.116-5.027a.941.941 0 10-.935 1.635l9.149 5.023c.276.152.586.233.902.233h6.303v21.727l-8.079 8.177H9.948l-8.079-8.177V28.251h6.303c.316 0 .626-.08.902-.234l9.148-5.027a.942.942 0 00-.934-1.635l-9.116 5.027H1.869A1.869 1.869 0 000 28.251v21.722c0 .492.196.964.542 1.313l8.079 8.163A1.868 1.868 0 009.948 60h39.907a1.87 1.87 0 001.327-.556l8.078-8.163c.347-.347.544-.817.547-1.308V28.251a1.869 1.869 0 00-1.87-1.869z" fill="#fff"/><path d="M13.083 51.842h13.083a.934.934 0 000-1.87h-10.71l1.561-1.56a.935.935 0 10-1.322-1.322l-2.944 2.944a.935.935 0 00.332 1.808z" fill="#fff"/><path d="M13.083 50.087h13.083a.935.935 0 010 1.87h-10.71l1.561 1.56a.935.935 0 11-1.322 1.322l-2.944-2.944a.935.935 0 01.332-1.808zm19.624.821a.934.934 0 00.934.934h13.083a.934.934 0 00.659-1.593l-3.154-3.154a.935.935 0 10-1.322 1.322l1.56 1.556H33.641a.935.935 0 00-.934.935z" fill="#fff"/><path d="M32.707 51.026a.934.934 0 01.934-.934h13.083a.935.935 0 01.659 1.593l-3.154 3.154a.935.935 0 11-1.322-1.322l1.56-1.556H33.641a.934.934 0 01-.934-.935zm19.801-4.496a.934.934 0 00.935-.935V32.512a.935.935 0 00-1.58-.663l-3.172 3.172a.935.935 0 001.304 1.304l1.56-1.56v10.83a.933.933 0 00.953.934z" fill="#fff"/><path d="M52.722 46.53a.934.934 0 01-.934-.935V32.512a.934.934 0 011.579-.663l3.172 3.172a.934.934 0 01-1.303 1.304l-1.56-1.56v10.83a.933.933 0 01-.954.934zM7.303 31.578a.935.935 0 00-.935.934v13.083a.934.934 0 001.575.64l3.154-3.154a.934.934 0 00-1.285-1.303l-1.575 1.56V32.512a.935.935 0 00-.934-.934z" fill="#fff"/><path d="M7.05 31.578a.935.935 0 01.934.934v13.083a.934.934 0 01-1.575.64l-3.154-3.154a.934.934 0 011.285-1.303l1.575 1.56V32.512a.935.935 0 01.934-.934zm26.124-3.565a.935.935 0 00.935-.935v-6.541a.935.935 0 00-.935-.934h-6.541a.935.935 0 00-.935.934v6.541a.935.935 0 001.87 0v-5.607h4.672v5.607a.935.935 0 00.934.935zm-17.512 13.55a.934.934 0 100-1.87h-1.87a.935.935 0 000 1.87h1.87zm24.586-1.869h-4.107a.935.935 0 000 1.869h4.107a.934.934 0 100-1.87zm-21.428.934a.934.934 0 00.935.935h4.098a.934.934 0 100-1.87h-4.098a.934.934 0 00-.934.935zm14.163 0a.935.935 0 00-.935-.934h-4.097a.935.935 0 000 1.869h4.097a.934.934 0 00.935-.935zm11.354.935h1.868a.934.934 0 100-1.87h-1.868a.935.935 0 000 1.87z" fill="#fff"/></svg>