<svg width="64" height="50" fill="none" xmlns="http://www.w3.org/2000/svg"><path d="M59 12.3H48.2C46.2 5.2 39.7 0 32 0c-7.7 0-14.2 5.2-16.2 12.3H5c-2.8 0-5 2.2-5 5v31c0 .6.4 1 1 1h7c.6 0 1-.4 1-1v-27h6.8c2 7.1 8.5 12.3 16.2 12.3 7.7 0 14.2-5.2 16.2-12.3H55v27c0 .6.4 1 1 1h7c.6 0 1-.4 1-1v-31c0-2.8-2.2-5-5-5zm-51 7c-.6 0-1 .4-1 1v27H2v-30c0-1.7 1.3-3 3-3h10.4c-.1.8-.2 1.6-.2 2.5 0 .9.1 1.7.2 2.5H8zm24 12.3c-8.2 0-14.8-6.7-14.8-14.8 0-8.1 6.6-14.9 14.8-14.9 8.2 0 14.8 6.7 14.8 14.8 0 8.1-6.6 14.9-14.8 14.9zm30 15.7h-5v-27c0-.6-.4-1-1-1h-7.4c.1-.8.2-1.6.2-2.5 0-.9-.1-1.7-.2-2.5H59c1.7 0 3 1.3 3 3v30z" fill="#fff"/><path d="M27.7 19.8c.4-.3.5-.8.3-1.2-.5-1.1-.5-2.4 0-3.5.2-.4.1-1-.3-1.2l-.1-.1L23 9c-.2-.2-.5-.3-.8-.3-.3 0-.6.2-.7.4-3.3 4.6-3.3 10.6 0 15.2.2.2.4.4.7.4h.1c.3 0 .5-.1.7-.3l4.6-4.6c0 .1.1 0 .1 0zm-5.3-8.5l.9.9H22c.1-.2.3-.6.4-.9zm-1.1 3h4.1l.6.6c-.4 1.2-.4 2.6 0 3.8l-.6.6h-4.1c-.4-1.8-.4-3.3 0-5zm1.1 7.9c-.2-.3-.3-.6-.5-.9h1.4l-.9.9zm6.5-9.9c0 .1.1.1.1.2.3.4.8.5 1.2.3 1.1-.5 2.4-.5 3.5 0 .1.1.3.1.4.1.3 0 .6-.2.8-.4l.1-.1 4.6-4.6c.2-.2.3-.5.3-.8 0-.3-.2-.6-.4-.7-2.2-1.6-4.9-2.5-7.6-2.5-2.7 0-5.4.9-7.6 2.5-.2.2-.4.4-.4.7 0 .3.1.6.3.8l4.7 4.5zm8.5-5.1l-3.5 3.5c-1.2-.4-2.6-.4-3.8 0l-3.5-3.5c3.3-1.9 7.5-1.9 10.8 0zm-2.3 14l-.1-.1c-.3-.4-.8-.5-1.2-.3-1.1.5-2.4.5-3.5 0-.4-.2-1-.1-1.2.3l-.1.1-4.6 4.6c-.3.2-.4.5-.4.8 0 .3.2.6.4.7 2.2 1.6 4.9 2.5 7.6 2.5 2.7 0 5.4-.9 7.6-2.5.2-.2.4-.4.4-.7 0-.3-.1-.6-.3-.8l-4.6-4.6zm-8.5 5.1l3.5-3.5c1.2.4 2.6.4 3.8 0l3.5 3.5c-3.3 1.9-7.5 1.9-10.8 0zM41 9l-4.6 4.6-.1.1c-.4.3-.5.8-.3 1.2.3.6.4 1.2.4 1.8 0 .6-.1 1.2-.4 1.8-.2.4-.1 1 .3 1.2l.1.1 4.6 4.6c.2.2.4.3.7.3h.1c.3 0 .6-.2.7-.4 1.6-2.2 2.5-4.9 2.5-7.6 0-2.7-.9-5.4-2.5-7.6-.2-.2-.4-.4-.7-.4-.3 0-.6.1-.8.3zm.6 2.3c.2.3.3.6.5.9h-1.4l.9-.9zM38 14.9l.6-.6h4.1c.2.8.3 1.6.3 2.5 0 .9-.1 1.7-.3 2.5h-4.1l-.6-.6c.2-.6.3-1.3.3-1.9 0-.6-.1-1.3-.3-1.9zm3.6 7.3l-.9-.9H42c-.1.3-.3.6-.4.9zM32 13.5c-1.8 0-3.3 1.5-3.3 3.3 0 1.8 1.5 3.3 3.3 3.3 1.8 0 3.3-1.5 3.3-3.3 0-1.8-1.5-3.3-3.3-3.3zm0 4.6c-.7 0-1.3-.6-1.3-1.3 0-.7.6-1.3 1.3-1.3.7 0 1.3.6 1.3 1.3 0 .7-.6 1.3-1.3 1.3z" fill="#fff"/></svg>