<svg width="102" height="100" fill="none" xmlns="http://www.w3.org/2000/svg"><path d="M68.615 66.522c.134-.153.277-.291.407-.447a24.124 24.124 0 001.644-2.212c.022-.032.05-.061.07-.095.022-.034.033-.073.054-.109a23.571 23.571 0 003.786-12.812c0-4.72-1.401-9.111-3.786-12.811-.02-.036-.03-.075-.054-.109-.022-.034-.05-.06-.07-.095a23.88 23.88 0 00-1.644-2.212c-.13-.156-.273-.296-.407-.447a23.792 23.792 0 00-1.401-1.465c-.246-.235-.5-.46-.755-.686-.415-.364-.842-.71-1.283-1.044-.278-.212-.552-.429-.84-.629-.57-.395-1.158-.76-1.761-1.103a24.183 24.183 0 00-2.781-1.363c-.294-.12-.594-.219-.892-.327a23.497 23.497 0 00-2.627-.787 22.712 22.712 0 00-1.844-.349c-.28-.042-.556-.095-.838-.129a23.737 23.737 0 00-2.746-.172c-.928 0-1.84.067-2.742.17-.281.033-.557.086-.837.13-.622.095-1.24.208-1.844.35a22.69 22.69 0 00-2.627.786c-.299.11-.599.208-.892.328a22.853 22.853 0 00-2.781 1.363c-.604.344-1.194.708-1.761 1.103-.288.2-.561.417-.84.629-.442.336-.869.681-1.284 1.046a24.34 24.34 0 00-.754.684c-.49.468-.954.958-1.404 1.467-.134.152-.276.291-.406.447a24.11 24.11 0 00-1.644 2.212c-.022.032-.05.06-.07.095-.022.034-.034.073-.054.108a23.547 23.547 0 00-3.788 12.81 23.57 23.57 0 003.786 12.812c.02.036.03.075.054.109.022.034.05.06.07.095.507.77 1.054 1.508 1.644 2.212.13.156.273.296.407.447.447.507.913.998 1.403 1.466a24.495 24.495 0 002.037 1.73c.278.213.553.43.841.63.57.394 1.158.759 1.761 1.103a24.201 24.201 0 002.781 1.363c.294.12.594.218.892.327.554.2 1.113.384 1.685.544.312.086.625.168.942.242a23.99 23.99 0 001.844.351c.28.042.554.095.837.129.904.102 1.816.17 2.744.17.93 0 1.841-.069 2.743-.172.281-.032.557-.085.837-.129a23.776 23.776 0 001.844-.349 22.674 22.674 0 002.627-.787c.299-.108.599-.206.892-.326a22.896 22.896 0 002.781-1.363 23.25 23.25 0 001.761-1.103c.288-.2.561-.417.84-.63a23.629 23.629 0 002.038-1.73 23.4 23.4 0 001.405-1.466zm-2.545-2.23c-.34.384-.685.759-1.05 1.115-.21.203-.432.395-.649.591a19.1 19.1 0 01-.893.763c-.26.205-.525.4-.793.593a20.506 20.506 0 01-1.756 1.134c-.312.18-.63.348-.953.509-.295.149-.59.295-.891.43a20.635 20.635 0 01-1.077.432c1.202-1.796 2.217-4.039 2.995-6.623 1.88.195 3.699.427 5.363.729-.095.113-.2.216-.296.327zm-23.46 5.135a19.631 19.631 0 01-.891-.43c-.322-.163-.641-.33-.953-.509a19.85 19.85 0 01-1.756-1.134 20.914 20.914 0 01-.793-.593c-.305-.244-.6-.502-.893-.763-.219-.195-.44-.386-.65-.591-.364-.356-.71-.73-1.049-1.115-.096-.11-.201-.214-.296-.328 1.664-.301 3.485-.532 5.362-.728.778 2.584 1.794 4.827 2.995 6.623a20.6 20.6 0 01-1.076-.432zM30.595 52.542h8.43c.089 2.6.37 5.077.83 7.363-2.377.261-4.61.605-6.645 1.029a20.133 20.133 0 01-2.615-8.392zm2.615-11.781c2.034.424 4.268.77 6.644 1.029-.46 2.286-.74 4.76-.829 7.363h-8.43a20.134 20.134 0 012.615-8.392zm2.415-3.358c.34-.384.685-.759 1.05-1.115.21-.203.432-.395.649-.591.291-.261.586-.52.893-.763.26-.205.525-.4.793-.593a20.573 20.573 0 011.756-1.134c.312-.18.63-.348.953-.509.295-.149.59-.295.891-.43a20.6 20.6 0 011.077-.432c-1.202 1.796-2.218 4.039-2.995 6.623-1.88-.195-3.699-.427-5.363-.729.095-.113.2-.216.296-.327zm23.46-5.135c.301.134.596.281.891.43.322.163.641.33.953.509a19.854 19.854 0 011.756 1.134c.268.193.535.388.793.593.305.244.6.502.893.763.219.194.44.386.65.591.364.356.71.73 1.049 1.115.096.11.201.214.296.328-1.664.301-3.485.532-5.363.728-.778-2.584-1.793-4.827-2.995-6.623a20.635 20.635 0 011.076.432zM71.1 49.153h-8.43c-.089-2.6-.37-5.077-.83-7.363a70.633 70.633 0 006.645-1.029 20.134 20.134 0 012.615 8.392zm-28.688 0c.091-2.555.386-4.917.834-7.05 2.452.178 5.007.27 7.601.27 2.595 0 5.15-.092 7.602-.27.448 2.13.743 4.495.834 7.05H42.412zm16.871 3.39a41.674 41.674 0 01-.834 7.049c-2.452-.178-5.007-.27-7.602-.27-2.594 0-5.149.092-7.601.27a41.653 41.653 0 01-.834-7.05h16.871zm-1.72-13.794a102.81 102.81 0 01-6.716.234c-2.298 0-4.537-.091-6.715-.234 1.67-5.13 4.275-8.24 6.715-8.24 2.441 0 5.046 3.11 6.716 8.24zm-13.43 24.197a102.74 102.74 0 016.714-.234c2.299 0 4.538.091 6.716.234-1.67 5.13-4.275 8.24-6.716 8.24-2.44 0-5.045-3.11-6.715-8.24zm17.708-3.04c.459-2.287.74-4.762.828-7.364H71.1a20.183 20.183 0 01-2.615 8.392 70.115 70.115 0 00-6.644-1.029zM49.256 96.583l-.112 3.386a47.226 47.226 0 003.509-.003l-.126-3.386a47.824 47.824 0 01-3.27.003zm-13.892.925a49.43 49.43 0 003.368.985l.836-3.285a46.487 46.487 0 01-3.137-.918l-1.067 3.218zM94.295 65.26l3.217 1.065c.366-1.105.697-2.239.983-3.366l-3.285-.834a45.962 45.962 0 01-.915 3.134zM42.166 99.236a48.15 48.15 0 003.475.491l.355-3.37a45.329 45.329 0 01-3.237-.459l-.593 3.338zm49.63-27.937l3.033 1.516a49.223 49.223 0 001.457-3.194l-3.132-1.299a45.637 45.637 0 01-1.358 2.977zm4.103-12.367l3.337.596a50.02 50.02 0 00.493-3.476l-3.371-.354a47.31 47.31 0 01-.46 3.234zm.681-9.762a45.761 45.761 0 01.003 3.267l3.388.12a49.144 49.144 0 00-.003-3.51l-3.388.123zm3.137-3.623a48.21 48.21 0 00-.498-3.476l-3.336.602c.193 1.072.35 2.159.463 3.23l3.371-.356zM84.363 82.01l2.483 2.307a49.282 49.282 0 002.296-2.652l-2.64-2.125a46.785 46.785 0 01-2.14 2.47zM55.787 96.347l.366 3.37a50.536 50.536 0 003.47-.499l-.6-3.337c-1.06.192-2.15.348-3.236.466zm32.673-19.43l2.784 1.937a49.244 49.244 0 001.9-2.954l-2.915-1.73a45.126 45.126 0 01-1.768 2.747zm-8.873 9.546l2.13 2.639a51.228 51.228 0 002.65-2.3l-2.31-2.48c-.8.742-1.631 1.463-2.47 2.14zm-5.358 3.732l1.735 2.913a51.238 51.238 0 002.946-1.9l-1.937-2.784a44.813 44.813 0 01-2.744 1.77zM62.214 95.19l.84 3.285a49.437 49.437 0 003.367-.992l-1.073-3.213a47.72 47.72 0 01-3.134.92zm6.186-2.066l1.303 3.129a49.532 49.532 0 003.187-1.46l-1.52-3.028c-.963.483-1.963.939-2.97 1.359zm-54.2-69.69l-2.714-2.032c-.7.933-1.374 1.903-2.003 2.883l2.85 1.834a47.047 47.047 0 011.867-2.685zM5.547 57.386a45.93 45.93 0 01-.347-3.249l-3.381.24c.081 1.158.208 2.331.373 3.49l3.355-.48zm13.101-43.677l2.221 2.56a46.545 46.545 0 012.543-2.053l-2.034-2.712a47.82 47.82 0 00-2.73 2.205zm5.61-4.208l1.837 2.851a44.905 44.905 0 012.807-1.67L27.27 7.707A50.535 50.535 0 0024.258 9.5zM1.815 47.367a50.88 50.88 0 00-.12 3.48v.024l3.39-.024c0-1.075.037-2.166.112-3.244l-3.382-.236zm.987-6.943a48.344 48.344 0 00-.617 3.454l3.356.476c.15-1.07.346-2.154.574-3.215l-3.313-.715zM31.817 9.217a44.492 44.492 0 013.012-1.25l-1.183-3.175a47.758 47.758 0 00-3.241 1.344l1.412 3.081zm-13.337 9.28l-2.4-2.397a49.547 49.547 0 00-2.391 2.571l2.562 2.219a45.626 45.626 0 012.228-2.393zM50.822 3.529l-.278 1.527c.1.019.202.029.304.029 1.08 0 2.17.037 3.242.112l.237-3.38a49.567 49.567 0 00-3.48-.122l-.025-.002V3.53zm9.738 2.586l.713-3.313a49.006 49.006 0 00-3.454-.617L57.34 5.54c1.081.154 2.164.349 3.218.574zm-22.633.819a44.648 44.648 0 013.165-.807l-.717-3.313a49.27 49.27 0 00-3.402.866l.954 3.254zM10.664 28.929L7.69 27.303a48.962 48.962 0 00-1.573 3.143L9.2 31.852c.452-.99.946-1.973 1.464-2.923zM44.308 5.55a45.211 45.211 0 013.248-.348l-.238-3.38a47.98 47.98 0 00-3.49.371l.48 3.356zM7.95 34.871L4.772 33.69a49.425 49.425 0 00-1.107 3.33l3.254.954c.304-1.038.65-2.083 1.03-3.103zM100 0H77.966c-.935 0-1.695.758-1.695 1.695v3.39h-3.39a5.091 5.091 0 00-5.084 5.084v1.695h-1.695a5.09 5.09 0 00-5.085 5.085v5.085c0 .937.76 1.695 1.695 1.695h3.702c.701 1.968 2.566 3.39 4.772 3.39 2.207 0 4.072-1.422 4.773-3.39h10.794c.701 1.968 2.566 3.39 4.772 3.39 2.207 0 4.072-1.422 4.773-3.39H100c.936 0 1.695-.758 1.695-1.695V1.694C101.695.759 100.936 0 100 0zM64.407 16.95c0-.936.76-1.696 1.695-1.696h3.39c.935 0 1.694-.757 1.694-1.695v-3.39c0-.935.761-1.694 1.695-1.694h3.39v11.864H64.406v-3.39zm33.898 3.389H79.661V3.389h18.644v16.95zM35.593 76.271h-1.695v-1.695a5.09 5.09 0 00-5.084-5.084h-3.39v-3.39c0-.938-.76-1.695-1.695-1.695H1.695c-.936 0-1.695.757-1.695 1.695V86.44c0 .937.76 1.695 1.695 1.695h3.702c.701 1.967 2.566 3.39 4.772 3.39 2.207 0 4.072-1.423 4.773-3.39h10.794c.701 1.967 2.566 3.39 4.773 3.39 2.206 0 4.07-1.423 4.772-3.39h3.702c.936 0 1.695-.758 1.695-1.695v-5.085a5.09 5.09 0 00-5.085-5.085zM3.39 67.797h18.644v16.949H3.389v-16.95zm33.898 16.949H25.424V72.88h3.39c.933 0 1.695.76 1.695 1.695v3.39c0 .937.759 1.695 1.694 1.695h3.39c.934 0 1.695.76 1.695 1.695v3.39z" fill="#0C3959"/></svg>