<svg width="115" height="100" fill="none" xmlns="http://www.w3.org/2000/svg"><path d="M96.43 91.071a1.786 1.786 0 11-3.572 0 1.786 1.786 0 013.571 0zM62.5 89.286a1.786 1.786 0 100 3.572 1.786 1.786 0 000-3.572zm40.315 5.357a8.841 8.841 0 01-1.074 1.785h10.76a1.786 1.786 0 110 3.572H1.786A1.787 1.787 0 010 98.214V19.642a1.783 1.783 0 011.047-1.625L40.333.16a1.789 1.789 0 011.477 0l39.286 17.857a1.783 1.783 0 011.048 1.625v28.572a1.786 1.786 0 01-3.572 0V20.79l-37.5-17.044-37.5 17.044v75.64h3.57V28.57a1.785 1.785 0 011.787-1.786h64.286A1.785 1.785 0 0175 28.571v19.643a1.786 1.786 0 11-3.572 0v-3.572H10.714v8.929H33.93a1.787 1.787 0 011.786 1.786v41.072h19.688a8.89 8.89 0 01-1.074-1.786h-9.686a1.785 1.785 0 01-1.785-1.786V87.5a1.786 1.786 0 011.785-1.786h1.786V55.357a1.785 1.785 0 011.786-1.786h32.143a1.787 1.787 0 011.786 1.786v3.571h19.643a1.782 1.782 0 011.485.795l7.143 10.715c.035.063.065.128.092.194a1.758 1.758 0 01.208.796v14.286h1.786a1.78 1.78 0 011.263.523 1.786 1.786 0 01.523 1.263v5.357a1.781 1.781 0 01-1.103 1.65c-.216.09-.449.136-.683.136h-9.686zm7.9-5.357h-7.323c.12.587.18 1.186.18 1.785h7.143v-1.785zM100.831 62.5H89.287v7.143h16.306l-4.762-7.143zm-18.687 0v23.214h5.402a8.837 8.837 0 0114.195 0h5.403v-5.357h-5.357v-3.572h5.357v-3.57H87.501a1.785 1.785 0 01-1.786-1.787V62.5h-3.571zM71.249 89.286c.12.587.18 1.186.18 1.785h14.286c0-.6.06-1.198.18-1.785H71.25zm-1.651 7.142h17.948a8.89 8.89 0 01-1.074-1.785h-15.8a8.89 8.89 0 01-1.074 1.785zm-8.883-39.285v8.928h7.143v-8.928h-7.143zM50 85.713h5.403a8.838 8.838 0 0114.195 0h8.974V57.142H71.43v10.715a1.785 1.785 0 01-1.785 1.786H58.928a1.785 1.785 0 01-1.786-1.786V57.142H50v28.572zm3.572 5.357c0-.6.06-1.198.18-1.785H46.43v1.785h7.143zm8.928 5.36a5.358 5.358 0 10-5.357-5.358 5.363 5.363 0 005.358 5.358zM19.643 62.5h3.572v-5.357h-3.572V62.5zm-8.929-5.357V75h21.43V57.142h-5.358v7.143A1.783 1.783 0 0125 66.071h-7.143a1.783 1.783 0 01-1.785-1.786v-7.142h-5.358zm8.929 26.786h3.572v-5.357h-3.572v5.357zm51.786-42.857V37.5H10.714v3.572H71.43zM10.714 30.357v3.571H71.43v-3.571H10.714zm21.43 66.072V78.57h-5.358v7.143A1.783 1.783 0 0125 87.5h-7.143a1.784 1.784 0 01-1.785-1.786v-7.143h-5.358V96.43h21.43zm62.5 0a5.358 5.358 0 10-5.358-5.358 5.363 5.363 0 005.358 5.358zM87.5 78.57h1.785a1.786 1.786 0 100-3.571H87.5a1.786 1.786 0 100 3.571z" fill="#0C3959"/></svg>