<svg width="107" height="84" fill="none" xmlns="http://www.w3.org/2000/svg"><path d="M96.523 81.283V42.059h6.971c.827 0 1.417-.59 1.417-1.418V21.03c0-2.245-1.89-4.254-4.253-4.254H88.135V1.418C88.135.59 87.545 0 86.717 0H41.941c-.827 0-1.418.59-1.418 1.418v15.358H5.553c-2.245 0-4.253 1.89-4.253 4.253v19.612c0 .827.59 1.418 1.417 1.418h6.97v39.224H0V84h106.329v-2.835h-9.806v.118zM23.747 54.7c0-.827.59-1.417 1.418-1.417h15.358v16.776h-6.97v2.835h6.97v8.389H23.747V54.7zm19.612 18.194h6.97V70.06h-6.97V53.283h15.358c.827 0 1.418.59 1.418 1.417v26.583H43.359v-8.389zm15.358-22.447H25.165c-2.245 0-4.254 1.89-4.254 4.253v26.583h-8.388V42.059h81.165v8.388H75.494c-2.245 0-4.254 1.89-4.254 4.253v13.941c0 2.245 1.89 4.253 4.254 4.253h18.194v8.389H62.97V54.7a4.235 4.235 0 00-4.253-4.253zM4.253 21.03c0-.826.59-1.417 1.418-1.417h34.97V28H4.253v-6.97zM85.3 2.835v28H43.359v-28h41.94zm16.776 18.194V28H88.135v-8.388h12.641c.709.118 1.3.709 1.3 1.418zM4.253 30.835h36.388v1.418c0 .827.591 1.418 1.418 1.418h44.776c.827 0 1.418-.59 1.418-1.418v-1.418h13.941v8.389H4.254v-8.389zm89.435 22.448v16.776H75.494c-.827 0-1.418-.59-1.418-1.418v-13.94c0-.828.59-1.418 1.418-1.418h18.194z" fill="#0C3959"/></svg>