<svg width="112" height="90" fill="none" xmlns="http://www.w3.org/2000/svg"><path d="M109.163 86.17h-3.83V30.42c.01-.127.01-.256 0-.383a1.896 1.896 0 00-.154-.345l-.21-.287a1.315 1.315 0 00-.287-.268s-.096-.115-.173-.153L56.631.257a1.915 1.915 0 00-1.916 0L6.837 28.984s-.115.115-.172.153a1.283 1.283 0 00-.288.268 1.743 1.743 0 00-.21.306c-.066.101-.118.21-.153.326a2.26 2.26 0 000 .383l-.269.21v55.54h-3.83a1.915 1.915 0 000 3.83h107.248a1.914 1.914 0 100-3.83zm-78.52 0H19.15V67.018h11.491V86.17zm61.284 0H45.963V47.867h45.964V86.17zm9.575 0h-5.745V45.952a1.915 1.915 0 00-1.915-1.915H44.048a1.915 1.915 0 00-1.915 1.915V86.17h-7.66V65.103a1.915 1.915 0 00-1.916-1.915h-15.32a1.915 1.915 0 00-1.916 1.915V86.17H9.576V31.722L55.539 4.144l45.963 27.578V86.17z" fill="#0C3959"/><path d="M65.115 40.207h7.66a1.915 1.915 0 100-3.83h-7.66a1.915 1.915 0 100 3.83zm-9.576 19.151h26.812a1.915 1.915 0 000-3.83H55.539a1.915 1.915 0 000 3.83zm0 9.575h26.812a1.915 1.915 0 100-3.83H55.539a1.915 1.915 0 100 3.83zm0 9.577h26.812a1.915 1.915 0 100-3.83H55.539a1.915 1.915 0 000 3.83zM28.727 55.528h-7.66a1.915 1.915 0 000 3.83h7.66a1.915 1.915 0 000-3.83z" fill="#0C3959"/><path fill-rule="evenodd" clip-rule="evenodd" d="M25.747 39v-6.11l2.36-1.35v-1.476l-1.222-.715-1.096.633v-1.265L24.524 28l-1.264.717v1.307l-1.095-.675-1.264.715V31.5l2.36 1.391V39h2.486zm0 0v6.11l2.36 1.35v1.475l-1.222.716-1.096-.633v1.266L24.524 50l-1.264-.716v-1.307l-1.095.674-1.264-.716v-1.433l2.36-1.391V39h2.486z" fill="#0C3959"/><path fill-rule="evenodd" clip-rule="evenodd" d="M25.114 37.905l-5.268-3.035v-2.74l-1.265-.715-1.222.716v1.264l-1.094-.632-1.264.758v1.434l1.094.63-1.094.633v1.434l1.22.716 2.36-1.349 5.311 3.076 1.223-2.19z" fill="#0C3959"/><path fill-rule="evenodd" clip-rule="evenodd" d="M25.114 37.904l5.31 3.076 2.36-1.348 1.265.717v1.432l-1.096.633 1.096.632v1.475l-1.265.717-1.138-.632v1.263l-1.222.718-1.222-.718-.043-2.74-5.267-3.034 1.222-2.19z" fill="#0C3959"/><path fill-rule="evenodd" clip-rule="evenodd" d="M23.892 37.904l-5.31 3.076-2.317-1.348-1.265.717v1.432l1.095.633-1.095.632v1.475l1.221.717 1.138-.632v1.263l1.223.718 1.264-.718v-2.74l5.269-3.034-1.223-2.19z" fill="#0C3959"/><path fill-rule="evenodd" clip-rule="evenodd" d="M23.892 37.905l5.269-3.035v-2.74l1.263-.715 1.222.716.043 1.264 1.054-.632 1.306.758v1.434l-1.139.63 1.139.633v1.434l-1.264.716-2.361-1.349-5.31 3.076-1.222-2.19z" fill="#0C3959"/></svg>