<svg width="100" height="100" fill="none" xmlns="http://www.w3.org/2000/svg"><path d="M96.774 35.484v-6.002L66.39 19.355h-5.1v9.053l-27.158-9.053h-5.1v16.129h-3.226V0H3.227v35.484H0V100h100V35.484h-3.226zM64.516 22.58h1.352l27.68 9.227v3.676H64.516V22.58zm-32.258 0h1.352l27.68 9.227v3.676H32.258V22.58zM22.581 3.226v6.451H6.45V3.226h16.13zM6.45 12.903h16.13v22.58H6.45v-22.58zm90.323 83.871H3.226V38.71h93.548v58.064z" fill="#0C3959"/><path d="M11.573 79.305l-3.068 3.068 9.123 9.122 3.069-3.068c.61.29 1.239.55 1.884.776v4.346h12.903v-4.344a19.554 19.554 0 001.884-.776l3.07 3.068 4.4-4.4h42.259a6.458 6.458 0 006.451-6.452c0-2.998-2.064-5.501-4.838-6.222V45.16H54.924v29.033h-3.311v-9.678h-4.344a19.936 19.936 0 00-.775-1.885l3.067-3.068-9.122-9.123-3.07 3.068c-.61-.29-1.238-.55-1.883-.776v-4.345H22.582v4.344a19.58 19.58 0 00-1.884.776l-3.069-3.068-9.123 9.122 3.068 3.068a19.335 19.335 0 00-.779 1.887H6.452V77.42h4.343c.228.646.487 1.275.778 1.886zm36.49 4.566l1.498-1.498-3.067-3.068c.29-.611.55-1.24.775-1.886h1.118a3.229 3.229 0 013.226 3.226 3.229 3.229 0 01-3.226 3.226h-.324zm29.356-3.226a3.23 3.23 0 01-3.225 3.226 3.23 3.23 0 01-3.226-3.226 3.23 3.23 0 013.226-3.226 3.23 3.23 0 013.225 3.226zm2.33-3.226h1.795c-.557.954-.899 2.046-.899 3.226 0 1.18.342 2.273.897 3.226h-1.795c.556-.953.898-2.045.898-3.226 0-1.18-.342-2.272-.897-3.226zm-11.11 6.452h-1.795c.556-.953.898-2.045.898-3.226 0-1.18-.342-2.272-.897-3.226h1.795c-.556.954-.898 2.046-.898 3.226 0 1.18.342 2.273.897 3.226zm-4.123-3.226a3.23 3.23 0 01-3.226 3.226 3.229 3.229 0 01-3.225-3.226 3.229 3.229 0 013.225-3.226 3.23 3.23 0 013.226 3.226zm-8.78 3.226H53.94c.557-.953.899-2.045.899-3.226 0-1.18-.342-2.272-.897-3.226h1.795c-.556.954-.898 2.046-.898 3.226 0 1.18.342 2.273.897 3.226zm34.587-3.226a3.23 3.23 0 01-3.226 3.226 3.23 3.23 0 01-3.226-3.226 3.23 3.23 0 013.226-3.226 3.23 3.23 0 013.226 3.226zM69.355 48.387h4.839v9.678h-4.84v-9.678zm-11.205 0h7.98V61.29h11.29V48.387h8.064v25.807H58.15V48.387zM9.677 67.742h3.518l.332-1.174a16.058 16.058 0 011.426-3.458l.595-1.065-2.482-2.484 4.562-4.56 2.483 2.483 1.065-.595a16.11 16.11 0 013.458-1.428l1.172-.33v-3.518h6.452v3.518l1.173.332a16.07 16.07 0 013.458 1.427l1.064.596 2.484-2.484 4.561 4.561-2.482 2.484.595 1.064c.6 1.073 1.08 2.236 1.426 3.458l.332 1.173h3.518v6.452H44.87l-.332 1.174a16.06 16.06 0 01-1.426 3.458l-.595 1.064 2.482 2.484-4.56 4.562-2.485-2.484-1.064.595a16.07 16.07 0 01-3.458 1.427l-1.173.33v3.519h-6.452v-3.518l-1.172-.332a16.068 16.068 0 01-3.458-1.428l-1.065-.595-2.483 2.484-4.562-4.561 2.482-2.484-.595-1.065a16.06 16.06 0 01-1.425-3.458l-.333-1.172H9.677v-6.452z" fill="#0C3959"/><path d="M29.032 80.645c5.337 0 9.678-4.34 9.678-9.677s-4.34-9.678-9.678-9.678c-5.337 0-9.677 4.34-9.677 9.678 0 5.337 4.34 9.677 9.677 9.677zm0-16.129a6.458 6.458 0 016.452 6.452 6.458 6.458 0 01-6.452 6.451 6.458 6.458 0 01-6.451-6.451 6.458 6.458 0 016.451-6.452z" fill="#0C3959"/></svg>