<svg width="191" height="190" fill="none" xmlns="http://www.w3.org/2000/svg"><path fill-rule="evenodd" clip-rule="evenodd" d="M105.888 129.998a39.222 39.222 0 006.393-12.838 49.374 49.374 0 019.296 3.129 36.656 36.656 0 01-15.684 9.709h-.005zm-37.197-9.709a49.535 49.535 0 019.296-3.129 39.36 39.36 0 006.395 12.838 36.668 36.668 0 01-15.684-9.709h-.007zm15.684-60.29a39.338 39.338 0 00-6.394 12.836 49.032 49.032 0 01-9.296-3.13 36.696 36.696 0 0115.684-9.706h.007zm37.196 9.706a48.944 48.944 0 01-9.296 3.13A39.212 39.212 0 00105.882 60a36.686 36.686 0 0115.684 9.705h.005zm-6.208 23.058a78.06 78.06 0 00-1.908-15.61 52.436 52.436 0 0011.108-3.915 36.398 36.398 0 017.118 19.525h-16.318zm0 4.472h16.32a36.4 36.4 0 01-7.117 19.523 52.618 52.618 0 00-11.117-3.913 78.132 78.132 0 001.907-15.61h.007zm-40.453 0a77.944 77.944 0 001.907 15.61 52.5 52.5 0 00-11.106 3.913 36.412 36.412 0 01-7.121-19.523h16.32zm0-4.472H58.59a36.422 36.422 0 017.121-19.525 52.384 52.384 0 0011.106 3.915 77.97 77.97 0 00-1.907 15.61zm20.226-13.55a82.6 82.6 0 0013.919-1.16 73.379 73.379 0 011.831 14.71H79.384c.112-4.953.725-9.88 1.831-14.71a82.69 82.69 0 0013.921 1.16zm0-20.822c-3.815 0-7.725 3.681-10.703 10.104a44.767 44.767 0 00-2.018 5.23 80.076 80.076 0 0025.447 0 45.522 45.522 0 00-2.02-5.23c-2.98-6.423-6.88-10.104-10.706-10.104zm0 52.394a82.28 82.28 0 00-13.919 1.159 73.234 73.234 0 01-1.83-14.709h31.497a73.371 73.371 0 01-1.831 14.709 82.252 82.252 0 00-13.917-1.159zm0 20.822c3.815 0 7.726-3.679 10.706-10.104a45.82 45.82 0 002.02-5.231 80.1 80.1 0 00-25.447 0 45.038 45.038 0 002.018 5.231c2.978 6.425 6.88 10.104 10.703 10.104zm0-77.688a41.08 41.08 0 1041.08 41.08 41.126 41.126 0 00-41.08-41.08zm88.246 51.207a18.498 18.498 0 00-7.7-10.598 11.135 11.135 0 00-5.042-14.078 11.139 11.139 0 00-14.506 3.633 11.129 11.129 0 00-1.033 10.445 18.513 18.513 0 00-7.694 10.598 20.65 20.65 0 1135.975 0zm-25.767-6.889a14.078 14.078 0 00-6.399 11.757 20.597 20.597 0 0028.353 0 14.064 14.064 0 00-1.714-6.687 14.07 14.07 0 00-4.687-5.07 11.104 11.104 0 01-15.553 0zm7.779-1.292a6.66 6.66 0 006.15-4.12 6.664 6.664 0 10-12.823-2.546 6.673 6.673 0 006.666 6.666h.007zm-45.551 63.797a70.58 70.58 0 0041.025-41.038 25.112 25.112 0 01-14.774-40.788 25.116 25.116 0 0114.774-8.622 70.57 70.57 0 00-41.027-41.027 25.116 25.116 0 01-49.414 0 70.566 70.566 0 00-41.023 41.027 25.114 25.114 0 010 49.41 70.588 70.588 0 0041.023 41.027 25.115 25.115 0 0149.414 0l.002.011zm-6.721 14.65a18.514 18.514 0 00-7.698-10.598 11.145 11.145 0 00-1.03-10.447 11.142 11.142 0 00-9.259-4.948 11.137 11.137 0 00-10.289 15.395 18.51 18.51 0 00-7.696 10.598 20.651 20.651 0 1135.972 0zM95.136 167.2a6.666 6.666 0 01-6.538-7.962 6.664 6.664 0 0113.2 1.296 6.68 6.68 0 01-6.662 6.666zm-14.175 13.05a20.594 20.594 0 0028.355 0 14.102 14.102 0 00-6.401-11.757 11.111 11.111 0 01-15.555 0 14.084 14.084 0 00-6.399 11.757zM24.883 96.953a6.664 6.664 0 116.668-6.674 6.675 6.675 0 01-6.66 6.666l-.008.008zm0 18.705a20.562 20.562 0 01-14.18-5.655 14.091 14.091 0 016.402-11.757 11.11 11.11 0 0015.555 0 14.093 14.093 0 016.398 11.757 20.562 20.562 0 01-14.175 5.655zm0-41.303a20.634 20.634 0 0117.984 30.779 18.5 18.5 0 00-7.698-10.597 11.134 11.134 0 10-20.576 0 18.5 18.5 0 00-7.698 10.597 20.638 20.638 0 0117.988-30.779zm70.253-47.67a6.662 6.662 0 116.662-6.661 6.674 6.674 0 01-6.662 6.661zM80.961 39.74a14.075 14.075 0 016.399-11.757 11.12 11.12 0 0015.555 0 14.101 14.101 0 016.401 11.757 20.595 20.595 0 01-28.355 0zM95.136 4.093a20.632 20.632 0 0117.986 30.778 18.512 18.512 0 00-7.698-10.598 11.143 11.143 0 00-5.04-14.08 11.136 11.136 0 00-15.538 14.08 18.52 18.52 0 00-7.696 10.598A20.638 20.638 0 0195.136 4.093zm70.34 65.788a75.033 75.033 0 00-45.222-45.222A25.116 25.116 0 0095.138 0a25.12 25.12 0 00-25.116 24.659 75.042 75.042 0 00-45.23 45.222 25.118 25.118 0 000 50.232 75.033 75.033 0 0045.222 45.228A25.123 25.123 0 0095.13 190a25.123 25.123 0 0025.116-24.659 75.02 75.02 0 0045.23-45.224 25.121 25.121 0 0024.792-25.116 25.12 25.12 0 00-24.792-25.116v-.004z" fill="#0C3959"/></svg>