<svg width="152" height="190" fill="none" xmlns="http://www.w3.org/2000/svg"><path d="M135.289 39.795c.577-2.67.871-5.395.878-8.128C136.167 14.205 124.802 0 110.833 0a22.728 22.728 0 00-17.328 8.558 3.167 3.167 0 004.827 4.1 16.506 16.506 0 0112.501-6.325c10.478 0 19 11.365 19 25.334a33.3 33.3 0 01-.321 4.528 41.092 41.092 0 00-59.845 36.638 41.288 41.288 0 0022.166 36.485V171c0 .84.334 1.645.928 2.239l15.834 15.833a3.167 3.167 0 003.45.687 3.167 3.167 0 001.027-.687l15.834-15.833a3.164 3.164 0 00.686-3.451 3.164 3.164 0 00-.686-1.027l-7.261-7.261 7.261-7.261a3.164 3.164 0 00.686-3.451 3.164 3.164 0 00-.686-1.027l-7.261-7.261 7.261-7.261a3.165 3.165 0 00.927-2.239v-23.682a41.06 41.06 0 0018.449-53.533 41.061 41.061 0 00-12.993-15.99zm-9.944 64.673a3.164 3.164 0 00-1.845 2.877v24.344l-8.572 8.572a3.167 3.167 0 000 4.478l7.261 7.261-7.261 7.261a3.167 3.167 0 000 4.478l7.261 7.261-11.356 11.356-12.666-12.667v-62.344a3.166 3.166 0 00-1.845-2.877A34.815 34.815 0 01110.833 38a34.587 34.587 0 0117.135 4.541 26.096 26.096 0 01-4.579 8.09 15.805 15.805 0 102.876 6.093 31.206 31.206 0 007.031-10.47 34.764 34.764 0 01-7.951 58.214zm-14.512-41.135a20.86 20.86 0 009.412-2.29 9.45 9.45 0 01-14.896 6.76 9.445 9.445 0 01-3.037-11.754 9.454 9.454 0 0111.044-5.042 9.45 9.45 0 015.264 3.744A15.011 15.011 0 01110.833 57a3.168 3.168 0 00-2.239 5.406c.594.594 1.4.927 2.239.927zM70.259 97.575a3.166 3.166 0 010 4.477l-17.353 17.354c-.594.594-1.4.927-2.24.927h-9.5v9.5A3.168 3.168 0 0138 133h-9.5v9.5a3.166 3.166 0 01-3.167 3.167H3.167A3.167 3.167 0 010 142.5v-22.167c0-.839.334-1.645.928-2.238L46.32 72.702a40.771 40.771 0 01-1.987-12.535 41.117 41.117 0 0153.945-39.115 3.167 3.167 0 01-1.976 6.018A34.76 34.76 0 0052.93 72.42a3.166 3.166 0 01-.725 3.354l-45.87 45.871v17.688h15.833v-9.5a3.168 3.168 0 013.166-3.166h9.5v-9.5A3.165 3.165 0 0138 114h11.355l16.426-16.425a3.166 3.166 0 014.478 0z" fill="#0F4C81"/></svg>