<svg width="191" height="190" fill="none" xmlns="http://www.w3.org/2000/svg"><g opacity=".2" fill="#0C3959"><path d="M102.676 125.294l.63-4.304a27.703 27.703 0 004.162-1.726l3.472 2.599c.893.65 2.152.568 2.924-.203l7.756-7.756c.771-.812.873-2.03.203-2.944l-2.599-3.472a24.892 24.892 0 001.705-4.142l4.284-.609c1.076-.142 1.909-1.117 1.909-2.213v-3.269h13.197l-4.548 4.548a2.268 2.268 0 000 3.188 2.213 2.213 0 001.584.649 2.21 2.21 0 001.583-.649l8.386-8.386c.873-.873.873-2.314 0-3.167l-8.386-8.385c-.852-.873-2.294-.873-3.167 0a2.243 2.243 0 000 3.167l4.548 4.548h-13.197V89.54c0-1.117-.812-2.071-1.909-2.213l-4.284-.61c-.446-1.42-1.015-2.842-1.705-4.141l2.599-3.472c.67-.914.568-2.173-.203-2.944l-7.777-7.756c-.791-.772-2.03-.853-2.944-.203l-3.471 2.599c-1.3-.65-2.721-1.26-4.142-1.706l-.63-4.304a2.25 2.25 0 00-2.233-1.909H89.479c-1.116 0-2.07.812-2.213 1.909l-.63 4.304a24.883 24.883 0 00-4.161 1.706l-3.472-2.6c-.894-.649-2.153-.568-2.924.204l-7.756 7.756c-.771.771-.873 2.03-.203 2.944l2.599 3.472c-.67 1.3-1.239 2.68-1.706 4.142l-4.284.609c-1.076.142-1.908 1.096-1.908 2.213v3.228H33.645c-16.101 0-29.176-13.075-29.176-29.176 0-16.1 13.095-29.176 29.176-29.176h4.202a2.262 2.262 0 002.254-2.254c0-1.218-1.015-2.233-2.254-2.233h-4.202C15.087 29.929.002 45.035.002 63.592c0 18.557 15.106 33.663 33.663 33.663h29.176v3.269c0 1.096.812 2.071 1.929 2.213l4.264.609a23.33 23.33 0 001.705 4.142l-2.599 3.472c-.65.914-.568 2.152.203 2.944l7.756 7.756c.792.771 2.03.853 2.944.203l3.472-2.599a25.17 25.17 0 004.142 1.726l.63 4.304a2.252 2.252 0 002.233 1.929h10.943a2.216 2.216 0 002.213-1.929zm-3.654-6.395l-.528 3.796h-7.066l-.548-3.796a2.214 2.214 0 00-1.644-1.848c-2.01-.508-3.94-1.32-5.807-2.396a2.252 2.252 0 00-2.457.142l-3.066 2.315-5.015-5.015 2.315-3.066a2.277 2.277 0 00.122-2.497c-1.056-1.726-1.868-3.675-2.396-5.766-.244-.873-.954-1.523-1.848-1.645l-3.817-.548v-7.066l3.817-.528c.894-.121 1.604-.792 1.848-1.644a21.2 21.2 0 012.396-5.787 2.244 2.244 0 00-.122-2.477l-2.315-3.086 5.015-4.995 3.066 2.295c.731.568 1.706.609 2.498.162a22.165 22.165 0 015.806-2.396c.853-.243 1.523-.954 1.645-1.847l.528-3.817h7.065l.549 3.817c.121.893.771 1.604 1.644 1.847 2.03.528 4 1.34 5.766 2.396a2.283 2.283 0 002.498-.162l3.065-2.295 5.015 4.995-2.314 3.086a2.244 2.244 0 00-.122 2.477 21.745 21.745 0 012.396 5.787c.243.852.954 1.522 1.847 1.644l3.818.528v7.066l-3.818.548c-.893.122-1.604.772-1.847 1.645-.528 2.091-1.34 4.04-2.396 5.766a2.277 2.277 0 00.122 2.497l2.314 3.066-5.015 5.015-3.065-2.315a2.32 2.32 0 00-2.498-.142 25.723 25.723 0 01-5.807 2.396 2.242 2.242 0 00-1.644 1.848zm89.03-94.413l-4.284-.61a27.938 27.938 0 00-1.705-4.161l2.578-3.472a2.182 2.182 0 00-.203-2.924l-7.715-7.776c-.812-.792-2.071-.873-2.944-.224l-3.472 2.62a25.62 25.62 0 00-4.162-1.706l-.63-4.324C165.373.812 164.419 0 163.302 0h-10.943c-1.117 0-2.071.812-2.213 1.909l-.63 4.324a24.906 24.906 0 00-4.162 1.706l-3.472-2.62a2.282 2.282 0 00-2.944.224l-7.776 7.796c-.772.813-.873 2.051-.203 2.944l2.599 3.472c-.65 1.32-1.259 2.721-1.706 4.163l-4.284.588a2.265 2.265 0 00-1.908 2.213v3.229H62.09l4.547-4.548c.853-.853.853-2.295 0-3.168-.873-.873-2.314-.873-3.167 0l-8.385 8.386c-.427.406-.67.974-.67 1.583 0 .59.243 1.158.67 1.584l8.385 8.385a2.21 2.21 0 001.584.65 2.21 2.21 0 001.583-.65c.853-.873.853-2.314 0-3.167l-4.548-4.548H125.7v3.228c0 1.097.792 2.05 1.909 2.213l4.284.59a24.165 24.165 0 001.705 4.161l-2.619 3.472a2.282 2.282 0 00.223 2.944l7.736 7.736a2.282 2.282 0 002.944.223l3.472-2.619c1.34.731 2.741 1.3 4.162 1.746l.63 4.304c.142 1.117 1.096 1.91 2.213 1.91h10.943c1.117 0 2.071-.793 2.213-1.91l.63-4.304a31.114 31.114 0 004.162-1.746l3.472 2.62a2.282 2.282 0 002.944-.224l7.735-7.736c.792-.791.874-2.05.224-2.944l-2.619-3.472a27.94 27.94 0 001.705-4.162l4.284-.589a2.274 2.274 0 001.949-2.253V26.699a2.233 2.233 0 00-1.949-2.213zm-2.538 11.248l-3.797.528c-.893.122-1.624.792-1.867 1.645-.569 2.111-1.34 4.04-2.396 5.786a2.244 2.244 0 00.122 2.477l2.314 3.086-4.994 4.995-3.087-2.355a2.216 2.216 0 00-2.456-.163 21.812 21.812 0 01-5.807 2.396 2.266 2.266 0 00-1.645 1.868l-.548 3.797h-7.045l-.548-3.797a2.266 2.266 0 00-1.645-1.868 21.812 21.812 0 01-5.807-2.396c-.751-.446-1.726-.386-2.456.163l-3.087 2.294-4.994-4.995 2.314-3.086c.528-.71.589-1.705.122-2.477-1.056-1.726-1.868-3.675-2.396-5.766-.243-.873-.954-1.543-1.868-1.665l-3.796-.528v-7.065l3.796-.528c.914-.122 1.625-.792 1.868-1.665.528-2.05 1.34-4 2.396-5.766a2.244 2.244 0 00-.122-2.477l-2.314-3.087 4.994-4.994 3.087 2.294c.73.569 1.705.61 2.497.162a21.343 21.343 0 015.766-2.395 2.266 2.266 0 001.645-1.868l.548-3.797h7.045l.548 3.797a2.266 2.266 0 001.645 1.868c2.03.528 4.02 1.34 5.786 2.396a2.25 2.25 0 002.477-.163l3.087-2.294 4.994 5.015-2.314 3.066c-.528.75-.589 1.725-.122 2.497a21.205 21.205 0 012.396 5.787 2.264 2.264 0 001.867 1.644l3.797.548v7.086zM79.754 155.586H64.282v-3.228c0-1.117-.812-2.071-1.908-2.213l-4.284-.609a24.21 24.21 0 00-1.706-4.163l2.599-3.472a2.25 2.25 0 00-.203-2.923l-7.756-7.756a2.25 2.25 0 00-2.924-.203l-3.471 2.599c-1.32-.65-2.741-1.259-4.163-1.706l-.63-4.304a2.229 2.229 0 00-2.212-1.909H26.66a2.23 2.23 0 00-2.213 1.909l-.63 4.304a24.853 24.853 0 00-4.162 1.706l-3.472-2.599a2.25 2.25 0 00-2.923.203l-7.756 7.756a2.25 2.25 0 00-.203 2.923l2.598 3.472c-.65 1.32-1.258 2.741-1.705 4.163l-4.284.609c-1.096.142-1.95 1.096-1.909 2.213v10.943c0 1.117.813 2.071 1.909 2.213l4.284.61a24.232 24.232 0 001.705 4.162l-2.598 3.472a2.25 2.25 0 00.203 2.923l7.756 7.756a2.25 2.25 0 002.923.203l3.472-2.599c1.36.711 2.761 1.28 4.162 1.726l.63 4.325A2.246 2.246 0 0026.66 190h10.964c1.096 0 2.05-.812 2.213-1.908l.63-4.325a29.437 29.437 0 004.162-1.726l3.471 2.599a2.25 2.25 0 002.924-.203l7.756-7.756a2.25 2.25 0 00.203-2.923l-2.599-3.472a33.15 33.15 0 001.706-4.162l4.284-.61c1.076-.142 1.908-1.096 1.908-2.213v-3.228h15.472c1.218 0 2.253-1.015 2.253-2.233 0-1.239-1.035-2.254-2.254-2.254zm-19.878 5.807l-3.796.528c-.894.122-1.604.792-1.848 1.665-.569 2.091-1.36 4.04-2.396 5.766a2.171 2.171 0 00.122 2.477l2.294 3.086-4.994 4.995-3.087-2.295a2.247 2.247 0 00-2.477-.162 24.014 24.014 0 01-5.806 2.396 2.263 2.263 0 00-1.645 1.868l-.548 3.796H28.65l-.548-3.796a2.264 2.264 0 00-1.645-1.868c-2.01-.508-3.96-1.3-5.807-2.396-.812-.447-1.766-.386-2.477.162l-3.086 2.295-4.995-4.995 2.295-3.086a2.17 2.17 0 00.121-2.477c-1.055-1.726-1.847-3.675-2.395-5.766-.244-.873-.955-1.543-1.848-1.665l-3.736-.528v-7.066l3.797-.528c.893-.122 1.604-.792 1.848-1.644.548-2.071 1.34-4.02 2.395-5.787a2.17 2.17 0 00-.122-2.477l-2.294-3.086 4.995-4.995 3.086 2.295c.71.568 1.705.609 2.477.162a21.893 21.893 0 015.766-2.396c.873-.243 1.543-.954 1.645-1.868l.548-3.796h7.066l.528 3.796c.121.914.791 1.625 1.644 1.868 2.05.528 4.02 1.34 5.786 2.396a2.247 2.247 0 002.477-.162l3.087-2.295 4.994 4.995-2.294 3.086a2.171 2.171 0 00-.122 2.477 23.185 23.185 0 012.396 5.787c.244.852.954 1.522 1.848 1.644l3.796.528v7.066zm96.459-68.65a2.261 2.261 0 00-2.245 2.245 2.261 2.261 0 002.245 2.244c16.1 0 29.178 13.078 29.178 29.178s-13.078 29.178-29.178 29.178H103.98l4.549-4.549a2.257 2.257 0 000-3.172 2.257 2.257 0 00-3.172 0l-8.35 8.379a2.243 2.243 0 000 3.173l8.379 8.379a2.22 2.22 0 001.586.658 2.22 2.22 0 001.587-.658 2.26 2.26 0 000-3.172l-4.549-4.549h52.325c18.554 0 33.666-15.113 33.666-33.667 0-18.554-15.112-33.667-33.666-33.667z"/><path d="M110.412 95.041c0-8.515-6.926-15.441-15.441-15.441s-15.442 6.926-15.442 15.44 6.927 15.442 15.442 15.442 15.441-6.927 15.441-15.442zm-15.441 10.953c-6.04 0-10.953-4.913-10.953-10.953 0-6.04 4.913-10.952 10.953-10.952 6.039 0 10.952 4.913 10.952 10.952 0 6.04-4.913 10.953-10.952 10.953zm-62.768 36.423c-8.516 0-15.442 6.927-15.442 15.442S23.688 173.3 32.203 173.3c8.514 0 15.441-6.926 15.441-15.441s-6.926-15.442-15.441-15.442zm0 26.395c-6.04 0-10.953-4.914-10.953-10.953 0-6.04 4.913-10.953 10.953-10.953 6.039 0 10.952 4.913 10.952 10.953 0 6.039-4.913 10.953-10.953 10.953zM157.83 16.7c-8.514 0-15.441 6.926-15.441 15.441s6.927 15.442 15.441 15.442c8.515 0 15.442-6.927 15.442-15.442s-6.927-15.442-15.442-15.442zm0 26.394c-6.039 0-10.952-4.913-10.952-10.953 0-6.04 4.913-10.953 10.952-10.953 6.04 0 10.953 4.914 10.953 10.953 0 6.04-4.913 10.953-10.953 10.953z"/></g></svg>