<svg width="191" height="190" fill="none" xmlns="http://www.w3.org/2000/svg"><path d="M112.41 35.534L95.446 66.07a3.392 3.392 0 00-.407 1.764v27.143a3.392 3.392 0 005.089 2.918l37.321-21.782a10.244 10.244 0 005.022-8.822V37.162a3.394 3.394 0 00-3.393-3.392h-23.682a3.396 3.396 0 00-2.986 1.764zm23.343 5.157v26.668a3.393 3.393 0 01-1.696 2.918l-32.233 18.728V68.648l15.54-27.957h18.389zm-5.225-13.574h3.393a3.392 3.392 0 100-6.786h-3.393a3.392 3.392 0 100 6.786z" fill="#0F4C81"/><path d="M176.467 149.261a13.571 13.571 0 0013.571-13.571v-47.5a13.572 13.572 0 00-13.571-13.572h-20.358V33.904a13.568 13.568 0 00-13.571-13.572 3.392 3.392 0 100 6.786 6.784 6.784 0 016.786 6.786v42.071L88.252 111.6V65.186c2.307-4.207 13.096-23.886 15.675-30.061 2.579-6.175 4.682-8.007 11.468-8.007h6.786a3.392 3.392 0 100-6.786h-6.786a16.967 16.967 0 00-17.71 12.282c-.476 1.154-1.29 2.85-2.308 4.818L63.417 5.335A17.508 17.508 0 0041.09 2.96 17.167 17.167 0 0035.934 9v1.085a16.759 16.759 0 00-.882 2.647l-24.429 70.3-1.629 1.9A34.336 34.336 0 00.037 109.7a18.802 18.802 0 007.465 13.572 33.524 33.524 0 0019.678 5.632 36.708 36.708 0 0024.022-7.804l5.7 1.018a3.462 3.462 0 003.732-1.968 3.393 3.393 0 00-1.018-4.071L27.723 91.311l24.7-48.993L81.466 71.36v43.971l-8.482 4.954a10.182 10.182 0 00-5.09 8.821v9.704a10.184 10.184 0 002.884 7.374 10.172 10.172 0 007.295 3.076h16.965v6.786h-23.75a16.902 16.902 0 00-14.522 8.346l-.407.747a16.73 16.73 0 00-.814 1.764 15.757 15.757 0 00-.543 1.764v.95h-6.175a49.739 49.739 0 005.496-23.75 3.392 3.392 0 10-6.785 0c0 30.536-23.547 37.322-24.565 37.322a3.417 3.417 0 00.814 6.786h.815a42.144 42.144 0 0019.746-13.572h10.315v.679c0 .271 0 .882.407 1.289.207.671.456 1.328.746 1.968l.679 1.289c.33.564.692 1.107 1.085 1.629l.475.746.475.475 1.425 1.357 1.154.95 1.764 1.086 1.222.679c.75.304 1.52.553 2.307.746h1.018c1.158.259 2.341.396 3.528.407h101.787a16.892 16.892 0 003.528-.407h1.018a16.815 16.815 0 002.307-.746l1.222-.679 1.764-1.086 1.153-.95 1.425-1.357.475-.475.475-.746c.394-.522.756-1.065 1.086-1.629l.679-1.289c.29-.64.539-1.297.746-1.968 0-.407 0-.882.407-1.289.158-.694.271-1.396.34-2.104v-1.9c.029-.565.029-1.131 0-1.696v-2.375a15.92 15.92 0 00-.543-1.765 16.654 16.654 0 00-.815-1.764l-.407-.746a16.888 16.888 0 00-14.521-8.686h-23.75v-6.786h27.143zM45.027 8.457a10.653 10.653 0 0113.571 1.628L92.12 43.608c-3.868 7.94-9.025 16.965-10.043 18.797l-38.34-38.408a10.18 10.18 0 01-2.985-8.007 9.836 9.836 0 010-1.086l1.018-2.918a10.315 10.315 0 013.257-3.528zM11.709 117.775a12.008 12.008 0 01-4.75-8.821 27.686 27.686 0 017.125-19.611l33.453 25.989c-6.785 7.804-27.142 9.229-35.828 2.443zm10.518-30.74l-4.615-3.528L37.02 26.44c.56.847 1.196 1.642 1.9 2.375l8.617 8.482-25.31 49.74zm161.025 1.154v47.501a6.785 6.785 0 01-6.785 6.785h-6.786V81.404h6.786a6.787 6.787 0 016.785 6.785zM74.68 139.015v-9.636a3.393 3.393 0 011.697-2.918l77.222-45.057h9.296v13.571h-10.178a3.393 3.393 0 000 6.786h10.178v6.786h-10.178c-.9 0-1.763.357-2.4.993a3.396 3.396 0 000 4.799c.637.636 1.5.993 2.4.993h10.178v6.786h-10.178a3.392 3.392 0 100 6.786h10.178v13.571H78.073a3.402 3.402 0 01-3.154-2.141 3.396 3.396 0 01-.239-1.319zm107.147 28.839c.571.962.962 2.02 1.154 3.122v.95c.021.384.021.769 0 1.153a9.218 9.218 0 01-.611 3.122l-.407.95-.475.882-.611.95-.61.746-.882.814-.679.611-1.018.611-.746.407-1.357.475h-.611a10.255 10.255 0 01-10.2-5.092 10.256 10.256 0 01.802-11.372 10.253 10.253 0 016.819-3.893 11.12 11.12 0 019.432 5.564zM159.57 183.19h-6.786a16.623 16.623 0 000-20.357h6.786a16.622 16.622 0 000 20.357zm-10.246-10.179a10.176 10.176 0 01-6.284 9.404 10.18 10.18 0 116.284-9.404zm-23.683 10.179h-6.785a16.627 16.627 0 000-20.357h6.785a16.622 16.622 0 000 20.357zm-10.246-10.179a10.183 10.183 0 01-6.283 9.404 10.18 10.18 0 01-13.3-13.299 10.181 10.181 0 019.404-6.283 10.179 10.179 0 0110.179 10.178zM69.184 183.19h-.61l-1.358-.475-.746-.407-1.018-.611-.679-.611-.882-.814-.61-.746-.611-.95-.475-.883-.475-1.289a12.278 12.278 0 01-.611-3.121c-.02-.385-.02-.77 0-1.154v-.95a9.225 9.225 0 011.154-3.121 11.13 11.13 0 019.5-5.225 10.254 10.254 0 016.82 3.893 10.258 10.258 0 01-9.399 16.464zm15.607-20.357h6.786a16.622 16.622 0 000 20.357h-6.786a16.627 16.627 0 000-20.357zm57.747-6.786h-40.715v-6.786h40.715v6.786z" fill="#0F4C81"/><path d="M139.145 135.688a3.393 3.393 0 003.393-3.393v-30.536a3.388 3.388 0 00-1.705-2.923 3.393 3.393 0 00-3.384.005L95.716 123a6.782 6.782 0 00-3.09 7.597 6.787 6.787 0 006.483 5.024l40.036.068zm-3.393-28.229v21.443H99.177l36.575-21.443z" fill="#0F4C81"/></svg>